<svg width="1448" height="698" viewBox="0 0 1448 698" fill="none" xmlns="http://www.w3.org/2000/svg">
<g filter="url(#filter0_d_3_1245)">
<g clip-path="url(#clip0_3_1245)">
<rect x="4" width="1440" height="690" fill="white"/>
<path d="M4 0H1444V5000H4V0Z" fill="#0B0716"/>
<path d="M640.738 92.2108C640.738 92.2108 613.582 177.875 650.733 416.94C650.733 416.94 642.624 435.62 631.309 412.601C619.994 389.581 594.724 264.293 631.309 87.305L613.582 73.1535C613.582 73.1535 571.151 348.447 571.151 407.506C571.151 407.506 551.161 422.978 550.596 390.713C550.03 358.636 581.523 141.269 600.758 78.0593C619.994 14.8493 593.027 78.0593 593.027 78.0593C593.027 78.0593 531.172 319.389 518.16 388.637C518.16 388.637 496.284 404.676 494.398 376.373C492.512 348.07 552.859 98.8149 552.859 98.8149L557.95 49.945L490.627 20.1326L386.718 27.114L328.257 338.069C328.257 338.069 310.531 348.447 307.89 329.012C305.25 309.578 353.339 57.3038 364.842 38.6239C376.346 19.9439 295.444 31.4538 295.444 31.4538L279.415 382.411C279.415 382.411 239.058 396.562 244.715 360.523C250.562 324.484 264.705 92.2108 264.705 92.2108L275.454 88.8145C275.454 88.8145 258.293 337.315 266.025 349.579C273.757 361.844 285.261 78.0593 285.261 78.0593L259.613 60.5115L175.694 53.5301L95.9242 323.352L74.803 338.635L136.658 16.1702L113.839 25.7932L39.161 249.575L22 212.782L71.2199 16.1702C71.2199 16.1702 156.459 0.131793 192.855 16.1702C229.252 32.2085 341.647 13.5285 341.647 13.5285L600.381 14.0946L663.933 47.8695L800.09 57.6812C800.09 57.6812 809.33 140.892 819.325 202.592C829.509 264.293 837.995 377.316 801.41 454.3C764.825 531.284 713.531 477.886 713.531 477.886C713.531 477.886 735.972 330.145 737.858 297.502C739.744 264.859 715.982 63.7192 715.982 63.7192L744.269 68.2476C744.269 68.2476 764.259 253.16 775.008 286.558C785.758 319.956 767.276 393.166 773.123 408.638C778.969 424.111 799.335 360.334 803.107 289.766C807.067 219.197 778.214 65.606 778.214 65.606L684.489 54.0961L640.738 92.2108Z" fill="#3B5586"/>
<path d="M-67 217C131.422 273.79 453.725 325.237 801.842 403.552C853.624 415.155 1155 673 1155 673H-67V217Z" fill="#30446A"/>
<path d="M69.9275 42.0024C69.9275 42.0024 20.5278 214.549 16.8549 253.83C13.1821 293.112 56.8889 453.176 37.4228 508.795L4 520.726L96.9228 510.814L19.2423 531.923L177.358 518.156L87.9244 521.277L187.458 499.433L108.125 505.674L150.546 492.642C150.546 492.642 102.065 492.642 95.6374 461.987C89.2099 431.333 65.5201 303.942 63.6836 287.055C61.8472 270.167 174.971 13 174.971 13L141.915 16.4876L47.8904 246.304L95.821 26.5834L69.9275 42.0024Z" fill="#22314F"/>
<path d="M271.199 70.8214C271.199 70.8214 268.628 218.954 259.997 278.978C251.182 339.002 224.921 495.211 216.29 505.858C207.475 516.504 141.915 530.271 141.915 530.271L280.748 512.099L154.403 540.184L357.511 513.2L304.438 513.384L372.019 495.946L288.278 505.858L336.392 490.806C336.392 490.806 264.588 514.485 269.546 478.875C274.505 443.448 320.782 345.06 337.678 310.734C354.573 276.408 381.384 183.344 381.384 85.6897C381.384 -11.7805 366.326 70.6378 366.326 70.6378C366.326 70.6378 373.12 215.65 285.707 353.687C285.707 353.687 288.278 299.904 308.295 222.442C328.312 144.98 340.799 171.412 353.287 81.6514C365.775 -8.10928 329.597 66.2324 329.597 66.2324C329.597 66.2324 332.719 93.3992 320.782 125.522C308.846 157.645 302.051 166.272 291.951 204.086L307.56 44.3888L271.199 70.8214Z" fill="#22314F"/>
<path d="M1321.26 39.9834C1321.26 39.9834 1322.92 146.632 1316.86 176.735C1310.8 206.839 1234.58 328.723 1210.16 355.706C1185.74 382.506 1182.61 423.256 1175.82 438.124C1169.02 453.176 1114.48 456.664 1114.48 456.664H1197.67L1127.71 471.716H1310.25L1214.02 462.354L1296.47 456.48C1296.47 456.48 1230.91 453.543 1220.26 445.467C1209.61 437.39 1279.03 442.346 1279.03 442.346C1279.03 442.346 1220.26 433.352 1230.91 396.273C1241.56 359.194 1299.59 295.499 1321.26 263.008C1343.12 230.518 1347.71 214.365 1348.99 134.517C1350.1 54.6681 1344.59 39.7998 1344.59 39.7998H1321.26V39.9834Z" fill="#22314F"/>
<path d="M1397.11 490.072L1432 334.413L1414.55 162.601L1374.52 134.884V498.883L1397.11 490.072Z" fill="#22314F"/>
<path d="M575.127 351.484C580.819 280.814 604.509 46.5914 604.509 46.5914L584.492 41.6353L572.556 197.845L578.248 52.6488H570.168C570.168 52.6488 563.557 269.616 560.252 303.942C556.946 338.268 546.478 438.124 522.972 440.143C497.079 436.839 458.514 428.028 457.596 405.267C456.31 370.941 477.613 234.924 477.613 234.924C488.631 202.066 520.768 46.5914 520.768 46.5914L489.549 52.6488C489.549 52.6488 458.33 188.483 453.372 219.321C448.414 250.159 427.662 426.56 421.418 423.256C415.174 420.135 429.498 366.352 428.213 320.83C426.927 275.123 441.252 88.9937 441.252 88.9937L423.806 94.1333C423.806 94.1333 406.91 359.744 405.625 382.873C404.339 406.001 366.877 446.384 336.392 445.283L389.832 452.809H300.582L371.835 459.784L282.401 472.083L511.403 467.494L405.441 455.93L536.011 458.499L433.539 442.163H487.346L545.56 449.689H507.363L623.057 460.886L562.455 450.973L629.301 449.872C629.485 449.689 569.434 422.155 575.127 351.484Z" fill="#22314F"/>
<g opacity="0.15">
<path d="M39.9938 428.028C40.7283 436.105 41.4629 443.998 41.8302 451.524L66.4382 476.305L39.9938 428.028Z" fill="url(#paint0_linear_3_1245)"/>
<path d="M76.7222 457.214L52.8488 360.295L22.1805 308.715C24.9352 326.336 28.4244 346.344 31.7299 366.903L76.7222 457.214Z" fill="url(#paint1_linear_3_1245)"/>
<path d="M393.688 445.65L406.176 416.281L400.116 399.76C398.279 403.248 395.892 406.919 393.137 410.407C395.525 413.527 397.361 416.097 397.361 416.097L393.688 445.65Z" fill="url(#paint2_linear_3_1245)"/>
<path d="M994.197 391.684L1015.68 408.204L1012.93 445.65L1027.62 408.204L1005.22 387.645L1012.93 307.613L988.688 348.18C988.137 356.624 987.586 364.884 986.852 372.777L998.421 360.295L994.197 391.684Z" fill="url(#paint3_linear_3_1245)"/>
</g>
<path d="M1145.89 254.198C1162.78 229.601 1178.94 190.686 1162.05 88.9938C1145.15 -12.6983 1145.89 84.0377 1145.89 84.0377C1145.89 84.0377 1166.45 151.955 1152.86 207.94C1139.27 263.926 1027.25 372.777 1027.25 372.777L1029.09 160.399L992.177 234.74C992.177 234.74 992.177 378.467 979.69 423.44C975.65 437.757 969.773 447.853 963.529 455.012L958.204 455.563C959.856 455.563 961.509 455.563 963.162 455.379C959.306 459.784 955.265 462.905 951.593 465.291L913.211 459.784L958.204 455.563C936.718 455.746 908.069 449.505 917.435 413.527C932.127 357.909 935.248 360.479 932.127 323.767C929.005 287.238 908.988 74.6761 908.988 74.6761H894.48C894.48 74.6761 905.866 258.419 910.273 284.668C914.681 310.917 894.664 402.881 888.42 350.383C882.176 297.885 862.71 222.809 860.873 177.837C859.037 132.865 857.751 63.8461 857.751 63.8461L827.083 74.6761C827.083 74.6761 825.798 147.182 831.491 192.705C837.184 238.411 845.264 307.613 839.02 342.673C832.776 377.183 838.836 450.974 752.525 449.138L835.898 452.075L758.401 458.867H849.12L802.292 463.823L949.389 466.576C941.309 471.349 934.881 472.083 934.881 472.083H1000.44L927.903 484.565L995.116 481.995L935.616 492.825L1112.46 486.401C1112.46 486.401 1038.64 481.444 1023.76 477.59C1008.71 473.919 1095.02 474.469 1095.02 474.469C1095.02 474.469 1030.56 460.152 1039.37 428.212C1047.82 396.456 1128.81 278.795 1145.89 254.198Z" fill="#22314F"/>
<path d="M82.92 419.896C493.512 452.035 1068.42 428.383 1476 416V672H-28V421.704C-28 421.704 -28.376 411.27 82.92 419.896Z" fill="#21304D"/>
<path d="M94.4156 531.939C94.4156 531.939 151.02 524.092 215.393 520.729C279.582 517.367 433.857 502.233 502.485 504.288C571.113 506.343 748.14 507.651 786.431 507.651C824.907 507.651 936.266 482.055 1052.25 480.374C1168.05 478.505 1429.43 494.947 1447 500.925V579.582L1379.67 590.605C1379.67 590.605 1341.75 607.794 1295.87 622.18C1249.81 636.753 1033.2 700.089 760.534 674.867C760.534 674.867 847.475 687.384 952.545 684.769C952.545 684.769 762.014 692.802 665.453 688.692C568.893 684.582 399.635 682.713 326.752 679.537C253.685 676.174 198.375 679.164 189.311 659.92C180.062 640.676 348.21 650.578 348.21 650.578C348.21 650.578 243.696 637.313 180.062 640.676C116.428 644.039 178.767 623.488 178.767 623.488L262.564 628.158L132.892 612.278C132.707 612.278 -136.071 550.996 94.4156 531.939Z" fill="url(#paint4_linear_3_1245)"/>
<path d="M94.4156 537.544C94.4156 537.544 151.02 529.884 215.393 526.708C279.582 523.532 433.857 508.959 502.485 510.827C571.113 512.696 748.14 514.004 786.431 514.004C824.907 514.004 936.266 489.155 1052.25 487.66C1168.05 485.979 1429.43 501.859 1447 507.651V583.505L1379.67 594.155C1379.67 594.155 1341.75 610.783 1295.87 624.609C1249.81 638.621 1033.2 699.715 760.534 675.427C760.534 675.427 847.475 687.571 952.545 684.955C952.545 684.955 762.014 692.616 665.453 688.692C568.893 684.769 399.635 682.9 326.752 679.724C253.685 676.548 198.375 679.35 189.311 660.667C180.062 642.171 348.21 651.699 348.21 651.699C348.21 651.699 243.696 638.995 180.062 642.171C116.428 645.347 178.767 625.543 178.767 625.543L262.564 630.027L132.892 614.706C132.707 614.893 -136.071 555.854 94.4156 537.544Z" fill="url(#paint5_linear_3_1245)"/>
<path opacity="0.53" d="M961.978 508.585C986.396 503.915 1107.37 506.717 1067.05 519.982C1045.59 527.082 972.337 533.434 903.154 535.489C902.784 536.05 902.414 536.424 902.229 536.984C931.457 536.61 964.013 535.676 1001.56 532.126C1064.83 525.961 1111.63 539.039 1092.21 545.018C1086.84 546.699 1072.97 549.315 1054.28 551.931C1061.68 551.557 1069.27 551.183 1076.67 550.81C1093.5 547.633 1114.03 545.018 1132.53 543.71C1141.97 542.963 1152.51 542.963 1164.16 543.523C1172.49 542.589 1180.63 541.468 1188.21 540.347C1126.8 544.27 1127.54 537.358 1071.67 529.698C1039.67 525.214 1110.15 514.19 1142.15 513.256C1163.79 512.696 1227.06 521.103 1239.08 528.95C1242.04 527.829 1244.63 526.708 1246.85 525.4C1225.21 519.422 1207.82 511.201 1197.09 505.409C1190.8 506.904 1182.66 508.212 1178.04 509.706C1165.09 513.443 1034.12 511.948 1049.84 502.42C1056.87 498.31 1141.97 496.254 1185.81 498.87L1045.78 489.715C1074.82 495.881 1026.35 504.475 993.98 505.783C982.141 506.157 972.707 506.157 964.198 505.596C959.574 507.278 954.949 508.772 950.51 510.454C954.949 509.706 958.649 509.146 961.978 508.585Z" fill="url(#paint6_linear_3_1245)"/>
<path opacity="0.53" d="M619.948 548.568C628.272 547.633 636.596 546.699 644.365 546.139C682.287 543.149 736.486 552.491 812.698 560.712C828.607 562.393 834.711 564.635 833.416 566.877C841.186 566.504 848.77 566.13 855.984 565.569C863.198 563.888 873.927 562.58 888.726 561.833C892.61 561.272 896.125 560.525 899.27 559.778C827.312 560.338 773.297 557.909 742.221 548.007C719.283 540.721 740.741 533.621 811.404 528.577C872.448 524.279 875.222 529.137 934.046 537.918C934.971 536.424 935.711 534.929 936.451 533.434C916.473 532.313 903.339 529.137 882.621 525.4C867.268 522.598 872.448 518.114 892.795 515.311L650.84 530.445C673.222 530.258 696.345 530.632 713.178 531.566C757.019 534.182 718.173 538.666 705.224 542.402C697.64 544.644 649.545 545.018 614.213 542.963C615.323 544.831 617.173 546.699 619.948 548.568Z" fill="url(#paint7_linear_3_1245)"/>
<path d="M665.453 688.879C762.014 692.802 952.545 685.142 952.545 685.142C847.29 687.758 760.534 675.614 760.534 675.614C1033.2 699.715 1249.81 638.621 1295.87 624.608C1341.93 610.596 1379.67 594.155 1379.67 594.155L1447 583.505V507.651C1431.65 502.607 1232.79 490.089 1104.78 487.847C1427.58 519.235 947.365 550.81 853.764 533.808C772.003 518.861 964.938 494.76 1014.51 488.968C912.774 494.386 820.653 514.004 786.431 514.004C747.955 514.004 571.113 512.696 502.485 510.827C433.857 508.959 279.582 523.532 215.393 526.708C202.445 527.269 189.681 528.203 177.657 529.137L182.837 549.875C182.837 549.875 1076.85 545.391 831.752 553.238C586.651 561.272 134.742 553.238 134.742 553.238L126.972 576.406C126.972 576.406 590.166 562.206 1093.32 561.459C1596.46 560.899 1131.42 612.091 956.614 614.706C781.807 617.322 331.377 617.322 184.132 592.847L45.2106 559.03C45.2106 559.03 188.016 631.708 277.732 628.906C367.448 626.103 1148.44 635.818 1006.37 655.062C875.777 672.811 287.536 666.833 193.196 665.712C209.289 678.977 260.714 676.922 326.752 679.911C399.82 683.087 568.893 684.955 665.453 688.879Z" fill="url(#paint8_linear_3_1245)"/>
<path opacity="0.53" d="M223.903 562.58C348.95 573.23 259.604 594.902 196.34 600.694C172.663 602.936 142.511 599.386 104.59 594.155C110.324 596.77 117.908 598.639 127.157 599.947C196.34 608.915 284.762 603.683 340.811 607.98C379.842 610.97 412.584 628.719 428.862 639.182C435.151 637.5 443.291 635.819 447.915 634.324C460.864 630.027 591.831 631.708 576.107 642.918C569.078 647.776 483.987 650.018 440.146 647.028L580.177 657.678C551.135 650.578 599.6 640.303 631.972 638.995C671.558 637.313 685.801 642.358 714.658 648.336C742.591 654.315 703.005 666.833 626.977 662.722L682.102 671.13C689.686 665.712 718.913 660.854 740.741 659.92C780.327 658.238 794.57 663.283 823.427 669.262C838.781 672.438 833.601 677.856 813.254 681.219L1055.21 663.283C1032.83 663.47 1009.7 663.096 992.871 661.975C949.03 658.986 987.876 653.568 1000.82 649.27C1013.77 644.973 1144.74 646.655 1129.02 657.865L1253.69 644.413C1214.11 643.479 1222.25 635.819 1174.71 622.18C1116.81 605.552 1172.67 602.189 1256.47 604.617C1301.42 605.925 1317.7 600.32 1343.23 604.057L1358.95 597.518C1344.89 600.133 1329.54 602.189 1315.48 603.496C1277.56 607.046 1223.36 596.023 1147.14 586.495C1078.52 578.087 1190.62 559.217 1304.75 563.141L1277.74 557.909C1256.28 559.404 1220.4 559.404 1176.37 561.833C1131.79 564.262 1072.6 550.062 1076.85 545.391C1079.07 542.963 1128.28 539.6 1179.7 538.852L1166.57 536.237C1166.01 536.237 1165.64 536.237 1165.09 536.237C1122.54 537.358 1072.97 535.676 1009.52 542.776C946.255 549.875 899.455 534.742 918.878 527.642C930.717 523.345 980.847 514.19 1037.08 511.014C1037.08 511.014 956.984 509.893 809.924 512.322C817.693 512.696 825.277 513.256 833.046 513.817C958.094 524.466 868.748 546.139 805.484 551.931C767.563 555.48 713.364 544.457 637.151 534.929C594.42 529.698 621.983 520.356 676.367 514.938C642.516 515.685 606.629 516.806 568.523 517.927C596.455 524.279 621.243 533.247 595.345 538.292C552.06 546.512 547.435 538.292 498.97 529.324C488.241 527.269 487.501 523.906 491.756 520.543C476.032 521.103 460.309 521.664 444.031 522.224C267.373 529.137 171.553 544.644 126.787 560.151C157.679 559.217 191.531 559.778 223.903 562.58ZM282.357 601.068C238.516 598.078 277.362 592.66 290.311 588.363C303.26 584.066 434.227 585.747 418.503 596.957C411.474 601.815 326.197 604.057 282.357 601.068ZM483.987 630.027C451.985 631.148 329.157 608.728 414.803 600.32C500.265 591.913 492.496 600.881 554.649 610.783C586.651 615.827 516.173 628.906 483.987 630.027ZM533.932 592.66C553.355 585.561 677.847 565.009 760.719 580.329C800.305 587.616 822.688 600.133 780.142 601.254C737.596 602.375 688.021 600.694 624.572 607.794C561.309 614.893 514.508 599.76 533.932 592.66ZM664.343 635.258C639.926 640.676 518.948 637.5 559.274 621.993C599.6 606.299 823.982 593.594 857.279 612.278C868.933 618.817 848.585 627.411 794.015 627.224C739.076 626.851 688.761 629.84 664.343 635.258ZM842.851 579.021C934.971 572.109 919.433 580.89 972.523 591.913C999.9 597.518 918.693 609.288 885.951 609.849C853.209 610.409 750.73 585.934 842.851 579.021ZM894.645 665.712C824.167 671.69 831.382 663.096 740.556 649.831C649.915 636.566 695.975 630.961 780.882 629.466C865.788 627.972 929.052 630.027 963.643 642.918C986.581 651.512 965.123 659.733 894.645 665.712ZM1061.68 644.973C1023.76 648.523 969.563 637.5 893.35 627.972C817.138 618.443 964.198 596.21 1089.25 606.859C1214.29 617.509 1124.95 639.182 1061.68 644.973ZM1145.11 596.957C1138.08 601.815 1052.99 604.057 1009.15 601.068C965.308 598.078 1004.15 592.66 1017.1 588.363C1030.05 584.066 1161.02 585.747 1145.11 596.957ZM966.233 546.699C1051.14 548.381 1108.85 552.491 1120.51 566.317C1128.28 575.472 1093.32 582.758 1014.88 585.934C936.451 589.11 957.909 581.263 892.426 565.009C827.127 548.941 881.327 545.205 966.233 546.699ZM789.761 554.359C829.347 552.678 843.59 557.722 872.448 563.701C902.045 569.867 855.984 583.692 770.893 577.34C686.171 571.174 750.175 556.041 789.761 554.359ZM588.501 544.27C673.962 535.863 666.193 544.831 728.347 554.733C760.349 559.964 689.871 572.856 657.869 573.977C625.497 575.285 502.855 552.678 588.501 544.27ZM493.606 594.342C455.684 597.891 401.485 586.868 325.272 577.34C249.06 567.811 396.12 545.578 521.168 556.228C646.4 566.69 557.054 588.363 493.606 594.342ZM217.983 546.326C258.309 530.632 482.692 517.927 515.988 536.61C527.642 543.149 507.294 551.744 452.725 551.557C397.97 551.37 347.655 554.173 323.238 559.591C298.635 565.009 177.657 562.02 217.983 546.326Z" fill="url(#paint9_linear_3_1245)"/>
<path opacity="0.53" d="M515.988 536.61C527.642 543.149 507.294 551.744 452.725 551.557C411.474 551.37 372.628 553.052 345.62 556.228C351.355 556.788 356.904 557.349 362.639 557.722C395.01 554.546 437.186 552.678 480.102 553.986C512.474 550.062 538.371 544.644 553.17 540.907C539.296 539.039 525.977 534.368 499.525 529.511C488.796 527.455 488.056 524.092 492.311 520.729C476.587 521.29 460.864 521.85 444.585 522.411C363.934 525.4 300.3 530.445 250.355 536.237C252.39 536.984 254.425 537.544 256.459 538.292C333.782 527.082 488.796 521.29 515.988 536.61Z" fill="url(#paint10_linear_3_1245)"/>
<path d="M925.346 -1.46186C925.346 -1.46186 957.203 53.9669 969.082 65.806C980.961 77.6451 1020.02 95.942 1026.14 88.7668C1032.08 81.4121 1032.62 44.4597 1032.62 44.4597H1039.1C1039.1 44.4597 1035.86 74.9544 1039.1 86.7936C1042.34 98.6327 1068.43 127.513 1068.43 127.513L1123.51 108.319C1123.51 108.319 1086.97 61.1421 1078.69 29.0329C1070.41 -3.07629 1082.29 22.5752 1082.29 22.5752C1082.29 22.5752 1092.91 72.0843 1132.87 100.965C1172.83 129.845 1159.51 84.1029 1159.51 84.1029L1143.31 44.639L1173.73 39.0782C1173.73 39.0782 1208.1 131.101 1228.44 169.668C1248.6 208.055 1268.94 274.067 1279.38 270.838C1290 267.61 1255.08 81.2328 1255.08 81.2328L1242.66 44.1009L1290.54 27.5979C1290.54 27.5979 1287.84 116.033 1290.54 131.998C1293.24 147.962 1321.85 81.2328 1321.85 81.2328L1297.92 23.4721H1311.23L1329.59 76.5689L1340.57 74.2369L1357.13 25.2659H1371.89C1371.89 25.2659 1359.11 67.7792 1348.49 84.8204C1337.87 101.682 1312.13 117.826 1299.36 141.146C1286.58 164.466 1299.36 236.397 1299.36 259.717C1299.36 283.036 1315.37 260.255 1312.67 285.906C1309.97 311.558 1291.62 410.935 1290.18 428.335C1288.74 445.735 1325.81 546.906 1353.89 716.421H1259.4C1259.4 716.421 1235.46 455.78 1233.66 442.147C1231.86 428.335 1219.44 439.456 1232.22 405.015C1245 370.754 1262.64 323.576 1258.5 300.616C1254.36 277.655 1233.3 234.603 1233.3 234.603C1233.3 234.603 1189.56 250.568 1151.59 262.946C1113.43 275.323 987.621 220.432 987.621 220.432L1000.94 215.41C1000.94 215.41 1064.83 240.523 1093.27 249.313C1121.71 258.102 1090.03 207.158 1090.03 207.158L1092.01 205.723C1093.09 205.006 1094.71 205.364 1095.43 206.441C1099.93 214.333 1114.87 241.42 1109.83 251.824C1109.83 251.824 1129.09 258.641 1149.07 253.259C1169.05 247.698 1226.46 224.379 1226.46 220.791C1226.46 217.204 1220.52 211.105 1220.52 211.105C1220.52 211.105 1212.24 207.517 1178.23 189.041C1144.21 170.564 1107.85 160.16 1107.85 160.16L1124.41 147.783C1124.41 147.783 1184.16 178.637 1208.1 185.991L1184.7 145.451C1184.7 145.451 1202.52 128.41 1155.73 123.925C1108.93 119.262 1074.91 131.639 1074.91 131.639L957.743 84.4616L950.364 68.4967L915.447 -2L925.346 -1.46186Z" fill="url(#paint11_linear_3_1245)"/>
<path d="M1418.51 28.6741L1415.81 68.4966C1415.81 68.4966 1387.19 206.799 1387.01 206.799C1386.83 206.799 1411.13 186.529 1411.13 186.529L1420.31 201.777C1420.31 201.777 1397.63 206.441 1387.01 230.119C1376.21 253.977 1364.33 398.558 1378.37 458.83C1378.37 458.83 1388.27 417.034 1392.77 395.867C1397.45 374.879 1396.19 324.832 1396.19 324.832L1411.67 330.393C1411.67 330.393 1403.39 368.78 1406.63 387.257C1409.87 405.912 1407.35 393.894 1396.19 440.174C1385.03 486.454 1387.37 535.425 1387.37 535.425L1391.51 585.831L1361.63 569.328C1361.63 569.328 1312.49 440.174 1308.72 422.236C1305.12 404.298 1311.05 398.378 1317.53 403.042C1317.53 403.042 1319.33 358.197 1331.75 307.073C1344.17 255.95 1352.45 239.088 1343.63 217.562C1334.81 196.036 1327.25 158.725 1321.67 113.162L1355.15 112.086C1355.15 112.086 1363.07 176.663 1369.01 191.373C1374.95 206.082 1403.39 78.7214 1401.05 30.6473C1398.89 -17.0681 1418.51 28.6741 1418.51 28.6741Z" fill="url(#paint12_linear_3_1245)"/>
<path opacity="0.49" d="M1306.74 551.031L1283.7 429.949L1276.32 440.892L1297.2 570.763L1270.02 440.892L1303.5 344.564C1307.64 319.809 1311.41 296.669 1312.67 286.086C1313.75 276.399 1312.13 273.709 1309.61 272.632L1306.92 274.785L1308.36 286.086L1269.12 397.84L1301.88 286.445L1296.66 277.655L1299.18 260.076C1299.18 236.756 1286.4 164.824 1299.18 141.505C1304.58 131.818 1312.13 123.208 1320.05 115.495L1319.87 112.804L1294.5 137.2L1290.54 149.936V132.177C1289.82 127.692 1289.46 117.288 1289.28 104.552L1279.74 107.064V118.723L1284.96 121.414L1287.12 142.402L1283.16 151.191L1282.8 165.901L1280.1 149.756L1283.7 145.092L1281.18 126.796L1275.06 122.132L1273.8 104.373L1267.32 102.759L1278.3 168.412L1284.78 171.641L1291.44 252.542L1281 177.381L1275.24 173.793L1261.74 101.144L1258.32 99.8884C1263.36 127.513 1272.36 179.892 1277.58 219.356L1285.5 252.542L1287.12 292.902L1274.88 281.96L1264.62 251.645C1254.18 229.76 1241.4 194.063 1228.44 169.668C1225.2 163.389 1221.42 155.676 1217.64 147.066L1205.4 148.859L1210.44 161.595L1218.9 166.259L1251.12 232.451L1213.5 168.591L1204.68 162.851L1198.56 149.039L1186.68 149.936L1196.94 167.694L1202.34 170.744L1215.84 192.987L1171.39 176.125L1167.79 169.668C1161.67 166.798 1155.55 163.927 1149.97 161.057L1148.17 161.416L1159.87 175.408L1200.18 189.758L1220.16 208.235L1193.16 190.296L1156.81 178.816C1163.65 181.866 1170.85 185.453 1178.05 189.22C1212.06 207.517 1220.34 211.284 1220.34 211.284L1232.4 217.204L1258.68 255.591L1256.52 262.587L1279.74 304.024L1250.04 401.428L1261.02 428.873L1260.66 527.533L1252.02 427.079L1240.68 402.325L1269.84 308.329L1251.48 264.022L1253.64 257.564L1233.48 228.863L1177.51 248.057L1157.35 260.793C1193.88 248.775 1232.94 234.424 1232.94 234.424C1232.94 234.424 1254 277.476 1258.14 300.436C1262.28 323.397 1244.82 370.574 1231.86 404.836C1219.08 439.098 1231.32 428.156 1233.3 441.968C1235.1 455.78 1259.04 716.241 1259.04 716.241H1353.53C1332.29 588.881 1306.2 500.087 1295.22 456.498C1295.22 456.857 1306.74 551.031 1306.74 551.031Z" fill="url(#paint13_linear_3_1245)"/>
<path opacity="0.49" d="M1285.14 73.34L1270.74 34.5938L1258.86 38.7195L1272.9 70.8287L1285.14 73.34Z" fill="url(#paint14_linear_3_1245)"/>
<path opacity="0.49" d="M1354.43 208.414L1343.45 164.107L1343.99 137.379L1351.91 141.684L1359.65 201.777V150.833L1360.19 149.218C1357.31 130.204 1355.15 112.625 1355.15 112.625L1337.51 113.163L1334.99 164.286L1354.43 208.414Z" fill="url(#paint15_linear_3_1245)"/>
<path opacity="0.49" d="M1371.71 287.521L1361.09 275.682L1350.29 304.024L1356.41 316.581L1350.83 383.669L1360.55 409.859L1363.79 521.254L1353.35 413.088L1342.37 389.589L1351.55 320.886L1345.97 310.482L1361.63 227.428L1344.17 207.517L1327.79 156.932C1332.29 182.404 1337.51 203.391 1343.27 217.562C1352.09 239.088 1343.81 255.95 1331.39 307.073C1323.11 341.515 1319.51 372.906 1318.07 389.947L1334.63 338.286L1345.79 316.222L1332.29 411.832L1322.21 436.228L1365.77 553.184L1308.53 422.236C1312.13 440.174 1361.45 569.328 1361.45 569.328L1391.33 585.831L1387.19 535.425C1387.19 535.425 1384.85 486.454 1396.01 440.174C1406.09 398.378 1409.15 404.119 1407.17 391.741L1385.21 456.139L1402.13 388.333V341.873L1396.37 341.335C1396.37 357.838 1395.83 382.413 1392.77 395.508C1390.79 404.298 1388.09 416.675 1385.39 428.156L1380.17 464.57L1382.87 471.386V518.922L1378.37 474.077L1370.27 468.516L1367.39 411.473L1372.07 391.024C1371.71 368.063 1372.43 343.488 1374.05 320.527L1358.21 382.593L1371.71 287.521Z" fill="url(#paint16_linear_3_1245)"/>
<path d="M11.3794 106.167C11.3794 106.167 74.3743 165.004 81.7537 173.973C89.1331 182.942 87.6933 201.418 93.6328 215.23C99.5723 229.043 122.61 254.694 134.13 261.511C134.13 261.511 136.829 281.243 132.33 347.075C127.83 412.908 121.711 424.389 139.169 446.452C156.628 468.516 145.649 499.549 132.69 555.875C119.911 612.2 170.847 716.062 170.847 716.062L258.14 716.241C258.14 716.241 219.443 628.345 229.162 539.013C229.162 539.013 254.36 507.801 270.019 484.481C285.677 461.162 309.615 350.304 309.615 350.304L305.476 349.587C305.476 349.587 292.157 408.065 288.917 414.702C285.677 421.339 274.158 387.974 274.158 387.974L271.098 391.024C271.098 391.024 277.218 411.473 281.178 420.622C285.137 429.77 266.419 470.49 256.16 479.997C245.901 489.325 219.803 514.797 219.803 514.797C219.803 514.797 212.063 473.718 209.183 450.758C206.484 427.797 203.604 431.743 216.203 391.741C228.802 351.739 230.602 349.049 241.941 342.95C253.28 336.851 499.32 227.07 599.212 154.241C599.212 154.241 737.621 127.513 784.957 131.639V128.948C784.957 126.616 783.157 124.822 780.817 124.822C763.539 125.002 694.964 126.257 632.869 138.993C632.869 138.993 710.083 85.7174 751.48 87.6905C792.876 89.6637 762.099 71.7256 762.099 71.7256C762.099 71.7256 704.684 79.9772 645.828 123.029C645.828 123.029 694.064 80.8741 716.563 71.7256C739.061 62.5772 732.581 55.7607 732.581 55.7607C732.581 55.7607 655.008 97.1977 632.869 124.464C610.731 151.73 656.807 41.5896 656.807 41.5896L637.009 32.8C637.009 32.8 621.35 96.839 610.371 110.113C599.392 123.387 531.358 162.851 531.358 162.851C531.358 162.851 532.077 133.433 534.597 124.464C537.117 115.495 552.056 96.4802 558.535 94.1483C565.015 91.8163 560.875 52.5319 560.875 52.5319L558.535 53.07C558.535 53.07 559.615 75.672 555.296 87.8699C550.976 100.068 521.818 52.5319 521.818 52.5319L517.499 53.07C517.499 53.07 532.977 84.2823 540.717 90.2019C548.456 96.1215 519.658 119.082 517.499 129.666C515.519 140.249 521.458 165.004 511.739 173.255C502.02 181.507 297.196 282.319 280.638 287.342C264.079 292.364 453.064 102.4 470.522 90.9194C487.981 79.439 487.081 53.7876 487.081 53.7876L515.519 30.468L508.679 22.7546C508.679 22.7546 505.08 36.567 487.981 45.1773C471.062 53.9669 478.262 10.3774 478.262 10.3774L461.703 21.3196C461.703 21.3196 472.142 48.7649 464.583 59.169C457.023 69.3937 387.189 152.447 345.432 171.641L346.332 154.241C346.332 154.241 346.332 149.218 333.913 158.367C333.913 158.367 335.713 174.511 321.134 186.529C306.376 198.548 312.315 202.315 301.876 213.795C291.257 225.276 220.523 308.15 216.923 286.086C213.323 264.022 287.657 77.6452 317.175 46.0742C346.692 14.5031 309.435 -0.385498 309.435 -0.385498H295.936C295.936 -0.385498 228.262 144.734 193.345 244.111C158.428 343.847 151.588 395.15 151.588 395.15C151.588 395.15 151.588 325.55 166.887 285.189C182.186 244.828 174.806 240.523 174.806 240.523C174.806 240.523 198.744 29.2124 212.243 6.78974L177.326 7.86603C177.326 7.86603 156.448 156.932 152.128 189.758C147.808 222.764 144.209 214.872 131.25 205.006C118.471 195.319 108.032 189.758 105.512 140.249C102.992 90.74 98.1324 12.7093 98.1324 12.7093L87.6933 17.0145C87.6933 17.0145 89.4931 141.505 90.2131 156.214C90.933 170.923 14.7991 87.6905 14.7991 87.6905L11.3794 106.167Z" fill="url(#paint17_linear_3_1245)"/>
<path opacity="0.33" d="M189.565 124.643C196.944 71.3666 205.764 17.5523 212.243 6.61011L177.326 7.86577C177.326 7.86577 165.087 95.5831 157.348 151.371C164.547 122.67 189.565 124.643 189.565 124.643Z" fill="url(#paint18_linear_3_1245)"/>
<path opacity="0.33" d="M284.417 102.041C297.016 76.0306 308.715 55.043 316.995 46.2534C346.332 14.6823 309.255 -0.206299 309.255 -0.206299H295.756C295.756 -0.206299 273.078 48.2266 247.34 108.319C279.558 80.5151 284.417 101.861 284.417 102.041Z" fill="url(#paint19_linear_3_1245)"/>
<path opacity="0.33" d="M135.569 208.414C134.309 207.337 133.05 206.261 131.43 205.185C118.651 195.498 108.212 189.937 105.692 140.428C103.172 90.9191 98.3124 12.8884 98.3124 12.8884L87.8732 17.1936C87.8732 17.1936 89.6731 141.684 90.393 156.393C91.113 171.102 14.7991 87.6903 14.7991 87.6903L11.3794 106.167C11.3794 106.167 74.3743 165.003 81.7537 173.973C89.1331 182.942 87.6933 201.418 93.6328 215.23C97.0525 223.302 106.412 235.321 115.771 245.366C104.072 222.405 135.569 208.414 135.569 208.414Z" fill="url(#paint20_linear_3_1245)"/>
<path opacity="0.49" d="M390.609 248.416L358.751 281.422L240.141 323.935L353.892 277.117L386.289 244.828L495 182.583C466.383 197.83 407.528 227.069 358.571 250.927L318.975 279.628L264.979 301.154L278.478 269.224L308.895 251.465C324.734 234.424 345.433 212.898 366.671 191.373L418.327 131.818L367.391 175.766L408.967 121.055C387.549 142.402 363.791 163.03 345.433 171.461L346.332 154.061C346.332 154.061 346.332 149.039 333.913 158.187C333.913 158.187 335.353 170.923 325.274 182.404L345.792 184.915L268.939 263.125L250.22 305.28L219.623 323.935L190.825 391.382L203.064 452.372L198.744 468.516L209.723 581.167L180.386 659.916L151.588 606.998L196.405 452.551L183.626 393.894L206.664 324.115L196.405 308.508L209.184 253.438L240.141 190.655L252.02 176.305C274.338 121.055 301.876 62.7565 317.175 46.2534C325.274 37.4638 328.334 30.1091 328.514 23.8308H284.957C272.898 50.3792 252.38 96.1213 232.222 144.554L216.923 196.575L237.981 170.385L201.804 253.259L168.687 396.943L182.186 448.246L149.428 544.394L170.667 446.452L158.248 401.248L167.967 324.115C154.828 371.112 151.588 395.149 151.588 395.149C151.588 395.149 151.588 325.55 166.887 285.189C182.186 244.828 174.806 240.523 174.806 240.523C174.806 240.523 181.286 182.942 189.565 124.643L171.207 208.414L159.507 230.298L166.167 244.29L151.588 305.997L155.908 245.546L149.248 233.886L159.687 213.078L166.167 87.6904C160.587 128.769 154.288 173.614 152.308 189.938C147.988 222.944 144.389 215.051 131.43 205.185C124.41 199.804 118.111 195.857 113.611 185.274L123.51 211.105L151.588 248.416L144.209 345.461V253.259C144.209 253.259 103.172 224.737 98.8524 218.639C94.5327 212.54 87.1533 187.606 87.1533 187.606C88.9532 196.395 89.8531 206.62 93.6328 215.051C99.5723 228.863 122.61 254.515 134.13 261.331C134.13 261.331 136.829 281.063 132.33 346.896C127.65 412.908 121.711 424.209 139.169 446.273C156.628 468.337 145.649 499.37 132.69 555.695C119.911 612.021 170.847 715.883 170.847 715.883H258.32C258.32 715.883 219.443 628.165 229.162 538.834L216.923 580.988L226.102 513.361L250.58 484.84C238.521 496.141 219.983 514.258 219.983 514.258C219.983 514.258 212.243 473.18 209.363 450.219C206.664 427.259 203.784 431.205 216.383 391.203C228.982 351.201 230.782 348.51 242.121 342.411C252.92 336.671 477.542 236.218 584.813 163.927L599.392 153.703L569.334 156.214L390.609 248.416Z" fill="url(#paint21_linear_3_1245)"/>
<path d="M16.599 469.772C16.599 469.772 31.3578 381.875 23.0785 316.76C23.0785 316.76 37.2973 372.009 34.5976 448.067C34.5976 448.067 57.6357 371.65 51.1562 301.512C51.1562 301.512 60.8754 373.444 47.5565 466.364C47.5565 466.364 64.4751 387.615 102.632 323.397C102.632 323.397 62.6753 397.123 59.6155 490.58C56.5558 584.217 16.599 469.772 16.599 469.772Z" fill="#0B0716"/>
<path d="M528.478 716.6C528.478 716.6 484.381 633.188 490.501 481.252C490.501 481.252 491.041 594.8 532.797 710.322C532.797 710.322 511.919 603.411 537.657 502.778C537.657 502.778 535.137 568.79 556.736 662.786C556.736 662.786 543.956 582.782 571.494 489.324C571.494 489.324 554.396 569.866 580.674 708.528C580.674 708.528 598.492 620.631 592.913 547.264C592.913 547.264 605.692 620.631 604.612 716.779H528.478V716.6Z" fill="#0B0716"/>
<path d="M624.59 716.062C624.59 716.062 616.671 697.227 631.249 639.287C631.249 639.287 637.369 690.052 633.769 716.6L624.59 716.062Z" fill="#0B0716"/>
<path d="M968.542 631.394C980.241 677.136 973.222 712.654 973.222 712.654C933.625 603.949 933.085 530.044 933.085 530.044C924.986 610.586 954.323 686.464 964.223 709.604C926.066 663.145 912.747 603.949 912.747 603.949C919.406 666.912 946.404 700.994 946.404 700.994C910.227 675.342 893.128 639.287 893.128 639.287C910.947 685.029 941.545 716.062 941.545 716.062L967.462 716.421H991.4C987.621 661.889 968.542 631.394 968.542 631.394Z" fill="#120B20"/>
<path d="M1091.47 716.6C1091.47 716.6 1108.57 590.495 1073.65 530.044C1073.65 530.044 1098.13 557.489 1104.97 671.037C1104.97 671.037 1119.73 591.572 1114.69 530.044C1114.69 530.044 1134.31 638.39 1121.35 716.062L1091.47 716.6Z" fill="#120B20"/>
<path d="M1131.97 716.6C1131.97 716.6 1162.57 545.291 1140.61 422.595C1140.61 422.595 1173.73 533.093 1140.25 716.6H1131.97Z" fill="#120B20"/>
<path d="M4 455.063C4 455.063 58.1756 464.211 87.6933 505.469C87.6933 505.469 96.5125 471.745 87.6933 446.452C87.6933 446.452 145.469 478.741 131.97 534.708C131.97 534.708 150.328 532.555 174.626 517.846C174.626 517.846 176.426 540.089 147.448 563.947C147.448 563.947 184.885 568.252 195.505 605.743C195.505 605.743 184.705 594.8 164.007 593.186L170.667 605.743C170.667 605.743 187.225 601.796 202.524 611.483C217.823 621.169 224.662 617.223 224.662 617.223C224.662 617.223 215.483 641.081 191.545 641.081C191.545 641.081 197.664 646.642 207.564 659.378C217.283 672.114 224.662 667.629 224.662 667.629C224.662 667.629 208.644 698.124 169.587 678.93C169.587 678.93 183.626 697.945 171.207 715.883H164.187C164.187 715.883 162.027 705.12 154.648 701.711C154.648 701.711 159.867 709.784 156.268 715.883H4V455.063Z" fill="#0B0716"/>
<path d="M321.854 591.571C321.854 591.571 297.916 562.332 345.073 534.708C345.073 534.708 341.833 542.421 345.073 552.646C348.312 562.691 347.412 575.965 347.412 575.965L356.772 577.4C356.772 577.4 373.33 564.306 401.948 581.167C401.948 581.167 399.968 580.091 393.129 586.728C386.469 593.365 383.409 594.083 383.409 594.083C383.409 594.083 391.869 596.774 401.768 593.007C401.768 593.007 398.528 602.155 389.169 610.227C389.169 610.227 396.368 617.044 408.427 612.021C408.427 612.021 396.908 639.287 373.69 637.672C373.69 637.672 380.89 641.081 386.469 650.408C392.229 659.736 399.248 657.942 399.248 657.942C399.248 657.942 397.448 668.705 391.869 670.679C391.869 670.679 401.768 672.472 409.867 687.899C409.867 687.899 399.968 673.549 407.528 652.023C407.528 652.023 408.067 656.687 412.567 658.122C417.247 659.736 422.286 661.171 423.546 664.221C423.546 664.221 417.787 656.507 420.846 636.058C420.846 636.058 429.306 633.547 433.985 638.749C433.985 638.749 433.265 631.035 447.484 618.299C461.703 605.743 456.844 603.411 456.844 603.411C456.844 603.411 475.022 620.093 469.263 653.099C469.263 653.099 471.242 651.305 481.682 650.588C491.941 649.87 497.16 642.336 497.16 642.336C497.16 642.336 500.22 682.159 465.843 691.128C465.843 691.128 471.422 691.307 480.242 692.563C489.061 693.819 498.78 688.617 498.78 688.617C498.78 688.617 499.68 706.196 483.841 715.703H271.638C271.638 715.703 252.38 711.219 240.321 693.46C240.321 693.46 252.74 693.998 258.68 686.105C264.619 678.392 268.759 676.06 268.759 676.06C268.759 676.06 257.24 683.773 234.741 676.06C234.741 676.06 245.001 672.472 246.081 662.965C246.98 653.279 250.04 648.794 250.04 648.794C250.04 648.794 243.741 649.512 241.941 656.866C241.941 656.866 240.501 622.604 267.139 617.223C267.139 617.223 266.239 614.891 261.199 616.326C261.199 616.326 261.199 589.24 285.317 584.576C285.317 584.576 283.877 579.374 289.637 571.481C295.397 563.767 294.857 556.772 294.857 556.772C294.857 556.772 295.037 565.561 303.676 570.405C316.995 577.759 320.055 593.724 320.055 593.724L321.854 591.571Z" fill="#0B0716"/>
<path d="M979.701 628.703C979.701 628.703 984.921 633.547 996.26 633.905C1007.6 634.444 1014.62 630.856 1019.48 633.905C1019.48 633.905 1017.5 618.299 1008.14 609.689C1008.14 609.689 1038.2 609.689 1054.04 634.085C1054.04 634.085 1053.86 626.192 1059.26 617.761C1064.65 609.33 1059.26 599.823 1059.26 599.823C1059.26 599.823 1093.27 623.86 1071.85 645.924C1071.85 645.924 1088.41 649.512 1088.23 674.625C1088.23 674.625 1087.15 671.037 1079.95 671.575C1079.95 671.575 1090.57 690.052 1076.53 716.241H1066.63C1066.63 716.241 1066.45 712.115 1062.67 707.99C1062.67 707.99 1062.85 711.039 1058.54 716.241H1033.88C1033.88 716.241 1029.2 712.115 1029.92 702.788C1029.92 702.788 1021.46 707.99 1006.88 707.81C1006.88 707.81 1004.54 695.433 1014.98 682.876C1015.16 682.697 983.661 676.777 979.701 628.703Z" fill="#0B0716"/>
<path d="M1134.4 535.957C1134.4 535.957 1146.73 557.125 1184.91 567.81C1184.91 567.81 1182.89 560.149 1187.54 533.538C1192.18 507.128 1184.91 491 1184.91 491C1184.91 491 1224.91 500.274 1247.33 546.642C1247.33 546.642 1253.8 539.182 1266.12 535.352C1278.44 531.522 1277.23 518.821 1277.23 518.821C1277.23 518.821 1293.19 547.851 1284.91 569.826C1284.91 569.826 1288.55 568.818 1308.14 573.858C1327.74 579.099 1339.86 557.528 1339.86 557.528C1339.86 557.528 1339.25 585.349 1328.95 600.066C1328.95 600.066 1369.15 601.88 1367.13 658.933C1367.13 658.933 1362.48 651.675 1347.33 653.49C1332.18 655.304 1317.84 648.248 1317.84 648.248L1318.44 652.683C1318.44 652.683 1331.58 651.474 1341.88 667.602C1352.18 683.73 1365.52 693.81 1365.52 693.81C1365.52 693.81 1347.13 697.842 1336.02 691.995C1336.02 691.995 1346.53 696.027 1358.44 715.179C1370.36 734.13 1394 726.267 1394 726.267C1394 726.267 1386.53 740.581 1370.36 743H1174.4C1174.4 743 1179.05 738.968 1178.85 732.718C1178.85 732.718 1158.65 731.71 1141.68 740.178C1141.68 740.178 1134 724.654 1143.29 704.091C1143.29 704.091 1117.43 704.696 1103.09 685.342C1103.09 685.342 1113.19 690.181 1127.54 680.907C1141.88 671.634 1142.28 658.328 1152.79 654.901C1152.79 654.901 1117.23 649.054 1094 658.933C1094 658.933 1103.9 618.814 1150.57 607.726C1150.77 608.331 1115.82 579.502 1134.4 535.957Z" fill="#0B0716"/>
<path d="M912.567 -1.46191H4V293.44C92.7329 267.789 166.167 158.725 166.167 158.725C96.6925 212.36 12.2793 231.554 12.2793 231.554L9.03959 227.428C162.027 151.012 178.586 101.862 178.586 101.862C140.969 105.987 108.752 116.93 108.752 116.93C201.084 57.9132 295.397 36.7462 295.397 36.7462C289.457 62.3977 315.195 70.6492 315.195 70.6492C292.697 75.3131 274.698 89.843 274.698 89.843C334.093 99.8883 383.409 88.4079 388.269 87.1523C388.449 87.1523 388.629 87.1523 388.629 86.9729C388.629 86.9729 388.449 86.9729 388.269 87.1523C368.651 91.6368 335.353 118.185 335.353 118.185C580.494 57.1956 636.109 194.243 636.109 194.243C643.849 175.587 642.769 156.035 642.769 156.035C646.728 163.927 646.728 176.484 646.728 176.484C671.566 143.119 660.587 115.136 660.587 115.136C729.882 129.845 755.62 156.393 755.62 156.393C741.221 105.629 683.625 78.1832 683.625 78.1832C805.116 95.7626 810.515 157.828 810.695 166.08C811.055 116.212 790.177 84.6409 790.177 84.6409C817.355 106.884 820.594 125.181 820.594 125.181C827.614 93.4306 806.735 60.4245 806.735 60.4245C870.81 70.4698 913.107 86.9729 913.107 86.9729C910.407 83.5647 906.987 81.4121 906.987 81.4121C944.784 66.1647 912.567 -1.46191 912.567 -1.46191ZM88.5932 123.567C88.5932 123.567 67.5349 126.795 46.8366 135.406C46.8366 135.406 101.012 97.0182 140.609 84.1028C140.609 84.1028 110.191 103.835 88.5932 123.567ZM164.547 46.074C164.547 46.074 96.1526 65.2678 54.7559 100.068C13.3592 134.868 9.57955 119.082 19.2988 104.193C19.2988 104.193 84.0936 -15.2742 216.923 18.9875L164.547 46.074ZM516.059 75.3131C455.404 62.5771 446.224 43.7421 446.224 43.7421C491.221 36.3875 514.259 40.5132 514.259 40.5132C563.035 59.3482 589.133 96.3007 589.133 96.3007C589.133 96.3007 576.714 88.2286 516.059 75.3131ZM607.851 74.0575C589.493 48.9441 558.715 30.4679 558.715 30.4679C558.715 30.4679 591.833 31.006 607.851 45.1771C623.87 59.3482 633.049 87.6904 633.049 87.6904C623.51 79.4389 607.851 74.0575 607.851 74.0575Z" fill="#120B20"/>
<path d="M750.22 425.824L746.08 425.644C747.34 425.644 748.78 425.644 750.22 425.824Z" fill="url(#paint22_linear_3_1245)"/>
<path opacity="0.1" d="M1266.35 535.939C1257.82 538.592 1251.93 543.082 1249.29 545.531C1248.68 546.143 1248.07 546.755 1247.46 547.367C1237.31 556.143 1244.42 569 1244.42 569C1244.42 569 1248.28 554.102 1263.3 553.49C1278.33 552.878 1283.61 536.755 1277.52 519C1277.52 519.204 1278.94 532.061 1266.35 535.939Z" fill="url(#paint23_linear_3_1245)"/>
<path opacity="0.1" d="M1187.99 534.243C1183.78 558.783 1185.18 567.231 1185.38 568.237C1185.38 568.237 1185.38 568.237 1185.38 568.438C1192.6 602.432 1252.76 548.323 1185.38 492.002C1185.38 491.801 1192.6 507.691 1187.99 534.243Z" fill="url(#paint24_linear_3_1245)"/>
<path opacity="0.1" d="M1110.91 641.44C1126.75 609.868 1161.31 595.877 1161.31 595.877C1119.55 605.743 1110.91 641.44 1110.91 641.44Z" fill="url(#paint25_linear_3_1245)"/>
<path opacity="0.1" d="M1151.04 608.406C1173.91 618.49 1217.8 606.187 1174.93 586.019C1132.26 566.051 1134.5 536 1134.5 536C1115.72 579.565 1151.04 608.406 1151.04 608.406Z" fill="url(#paint26_linear_3_1245)"/>
<path opacity="0.1" d="M1140.79 660.992C1131.25 667.091 1123.87 666.373 1120.81 665.476C1189.38 688.258 1163.47 637.852 1163.47 637.852C1163.47 637.852 1162.21 638.569 1160.05 639.466C1153.57 643.951 1151.95 653.817 1140.79 660.992Z" fill="url(#paint27_linear_3_1245)"/>
<path opacity="0.1" d="M1171.5 692.292C1149.87 694.908 1143.69 704.972 1143.69 704.972C1134.21 725.502 1142.04 741 1142.04 741C1144.1 704.569 1193.13 689.675 1171.5 692.292Z" fill="url(#paint28_linear_3_1245)"/>
<path opacity="0.21" d="M158.248 401.248L165.447 446.452L149.428 544.394L170.667 446.452L158.248 401.248Z" fill="#1E132B"/>
<path opacity="0.21" d="M111.991 229.939L140.609 257.744L137.729 420.801L144.209 345.461V253.259L111.991 229.939Z" fill="#1E132B"/>
<path opacity="0.21" d="M201.984 284.471L192.085 311.199L198.924 330.034L183.446 393.894L206.664 323.935L196.405 308.329L201.984 284.471Z" fill="#1E132B"/>
<path opacity="0.21" d="M268.939 263.125L331.934 216.845L345.793 185.094L268.939 263.125Z" fill="#1E132B"/>
<path opacity="0.21" d="M203.064 452.551L196.404 393.894L224.482 330.393L256.34 308.329L268.939 263.125L250.22 305.28L219.623 323.935L190.825 391.382L203.064 452.551Z" fill="#1E132B"/>
<path opacity="0.19" d="M4 257.205V293.44C92.7329 267.789 166.167 158.725 166.167 158.725C166.167 158.725 91.6529 250.389 4 257.205Z" fill="url(#paint29_linear_3_1245)"/>
<path opacity="0.19" d="M178.766 102.041C178.766 102.041 106.052 173.973 4.17993 192.27V221.15C5.25984 223.661 6.87971 225.814 9.21953 227.428C162.207 151.012 178.766 102.041 178.766 102.041Z" fill="url(#paint30_linear_3_1245)"/>
<path opacity="0.19" d="M790.357 84.8203C817.535 107.064 820.774 125.36 820.774 125.36C818.434 86.2554 790.357 84.8203 790.357 84.8203Z" fill="url(#paint31_linear_3_1245)"/>
<path opacity="0.19" d="M683.805 78.5421C684.705 78.5421 685.965 78.7215 687.225 79.0802C775.238 92.7132 800.616 130.024 807.995 151.55C784.597 59.1689 683.805 78.5421 683.805 78.5421Z" fill="url(#paint32_linear_3_1245)"/>
<path opacity="0.1" d="M642.948 156.393C646.908 164.286 646.908 176.843 646.908 176.843C671.746 143.478 660.767 115.495 660.767 115.495C667.606 149.039 642.948 156.393 642.948 156.393Z" fill="url(#paint33_linear_3_1245)"/>
<path opacity="0.19" d="M335.353 118.365C580.494 57.3751 636.109 194.422 636.109 194.422C597.952 20.4226 335.353 118.365 335.353 118.365Z" fill="url(#paint34_linear_3_1245)"/>
<path opacity="0.19" d="M889.169 59.8864C855.691 53.9668 806.915 60.7833 806.915 60.7833C870.99 70.8286 913.287 87.3317 913.287 87.3317C910.587 83.9234 907.167 81.7709 907.167 81.7709C944.784 66.1647 912.747 -1.46191 912.747 -1.46191H898.348C909.327 23.2927 889.169 59.8864 889.169 59.8864Z" fill="url(#paint35_linear_3_1245)"/>
<path opacity="0.19" d="M320.774 17.7319C203.604 28.6742 108.932 117.109 108.932 117.109C201.264 58.0926 295.576 36.9257 295.576 36.9257C289.637 62.5772 315.375 70.8287 315.375 70.8287C279.738 52.8906 320.774 17.7319 320.774 17.7319Z" fill="url(#paint36_linear_3_1245)"/>
<path opacity="0.19" d="M274.698 90.0224C334.093 100.068 383.41 88.5873 388.269 87.3317C357.132 69.573 274.698 90.0224 274.698 90.0224Z" fill="url(#paint37_linear_3_1245)"/>
<path opacity="0.19" d="M660.767 115.315C730.062 130.024 755.799 156.573 755.799 156.573C755.619 155.855 755.259 155.138 755.079 154.42C717.103 83.5646 660.767 115.315 660.767 115.315Z" fill="url(#paint38_linear_3_1245)"/>
<path opacity="0.21" d="M1248.6 377.391L1233.66 410.576L1244.64 436.048L1260.66 527.891L1252.02 427.438L1240.68 402.683L1248.6 377.391Z" fill="#1E132B"/>
<path opacity="0.21" d="M1292.88 316.581L1262.1 398.378L1268.22 410.576L1263.72 440.892L1285.68 516.411L1269.84 440.892L1274.7 410.038L1268.94 397.84L1292.88 316.581Z" fill="#1E132B"/>
<path opacity="0.21" d="M1202.16 170.744L1223.58 194.422L1233.66 216.486L1215.66 192.987L1202.16 170.744Z" fill="#1E132B"/>
<path opacity="0.21" d="M1272.18 157.29V174.511L1277.58 185.094L1290.36 244.469L1281.18 177.74L1275.42 173.973L1272.18 157.29Z" fill="#1E132B"/>
<path opacity="0.21" d="M1299 259.896L1292.88 275.323L1297.74 290.57L1295.22 308.15L1301.7 286.445L1296.48 277.476L1299 259.896Z" fill="#1E132B"/>
<path opacity="0.21" d="M1361.99 227.787L1339.31 310.123L1346.15 316.581L1342.73 389.947L1351.91 321.245L1346.33 310.84L1361.99 227.787Z" fill="#1E132B"/>
<path opacity="0.21" d="M1365.05 301.154L1358.39 381.337L1371.71 287.521L1365.05 301.154Z" fill="#1E132B"/>
<path opacity="0.21" d="M1342.73 389.947L1347.95 417.931L1361.99 500.984L1353.71 413.446L1342.73 389.947Z" fill="#1E132B"/>
<path opacity="0.49" d="M1415.81 68.4967L1418.51 28.6742C1418.51 28.6742 1398.71 -17.068 1401.05 31.0061C1403.03 70.8287 1383.77 164.645 1373.69 187.785C1378.55 190.835 1383.59 194.243 1388.63 198.369C1395.29 168.233 1415.81 68.4967 1415.81 68.4967Z" fill="url(#paint39_linear_3_1245)"/>
<path d="M1253.82 53.0699C1253.82 53.0699 1383.05 24.5483 1443.88 47.8678V-1.46191H953.603C953.603 -1.46191 926.066 18.9875 915.087 42.8452C904.107 66.7028 974.482 39.6163 974.482 39.6163C974.482 39.6163 859.111 128.231 913.827 175.408C913.827 175.408 900.148 188.682 892.768 208.414C892.768 208.414 912.027 197.83 930.385 195.14C930.385 195.14 906.987 220.253 910.587 243.752C914.187 267.071 950.544 226.89 950.544 226.89C950.544 226.89 938.125 245.187 957.923 246.981C977.721 248.774 1056.74 195.678 1148.17 192.449C1148.17 192.449 1120.99 182.762 1088.05 185.991C1088.05 185.991 1208.46 130.562 1309.07 161.775C1309.07 161.775 1263.9 131.101 1155.01 129.666C1155.01 129.666 1189.02 117.826 1230.06 120.517C1230.06 120.517 1186.86 108.14 1146.37 112.266C1146.37 112.266 1163.29 101.323 1194.24 98.0945C1194.24 98.0945 1184.16 99.8883 1173.19 108.14C1173.19 108.14 1258.68 97.5564 1330.31 124.822C1330.31 124.822 1315.55 127.334 1295.4 124.822C1295.4 124.822 1393.31 171.282 1425.53 245.904C1425.53 245.904 1374.95 217.024 1364.87 197.83C1364.87 197.83 1350.11 225.814 1356.59 255.591C1356.59 255.591 1348.31 237.294 1353.89 214.871C1353.89 214.871 1329.77 248.236 1369.19 313.71C1408.61 379.184 1444.06 374.7 1444.06 374.7V69.7523C1426.25 63.6534 1359.83 44.2802 1253.82 53.0699ZM1013.18 75.6719C1013.18 75.6719 1051.16 45.7153 1072.03 39.6163C1092.91 33.5174 1123.51 36.5668 1123.51 36.5668C1123.51 36.5668 1092.19 48.7648 1062.85 70.1111C1033.34 91.6368 1013.18 75.6719 1013.18 75.6719ZM1123.33 100.068C1082.83 129.307 1056.02 115.315 1056.02 115.315C1056.02 115.315 1121.53 60.4245 1192.08 58.4513C1192.08 58.6307 1163.83 70.8286 1123.33 100.068Z" fill="#120B20"/>
<path d="M1374.05 703.326C1374.05 703.326 1322.57 679.468 1282.8 556.234C1282.8 556.234 1306.91 629.6 1359.47 677.674C1412.03 725.928 1359.47 668.526 1359.47 668.526C1359.47 668.526 1316.99 620.631 1312.85 483.405C1312.85 483.405 1330.13 613.097 1379.99 655.252C1429.85 697.406 1393.85 609.51 1393.85 609.51C1393.85 609.51 1391.51 541.345 1406.45 479.638C1406.45 479.638 1398.17 557.13 1413.47 620.631C1428.77 684.132 1396.91 712.833 1396.91 712.833L1374.05 703.326Z" fill="#0B0716"/>
<path d="M1358.93 681.262C1358.93 681.262 1353.35 701.711 1369.73 716.241L1444.06 716.062V485.378C1444.06 485.378 1424.63 488.069 1421.03 509.595C1421.03 509.595 1400.33 490.759 1415.45 470.669C1415.45 470.669 1368.11 488.966 1378.37 539.372C1378.37 539.372 1363.25 536.681 1358.03 514.258C1358.03 514.258 1350.47 560.539 1378.37 568.79C1378.37 568.79 1360.73 571.84 1354.25 551.031C1354.25 551.031 1348.31 594.442 1374.41 597.671C1374.41 597.671 1361.09 618.299 1378.37 641.26C1395.65 664.221 1372.61 679.289 1372.61 679.289C1372.61 679.289 1389.17 692.025 1410.23 671.575C1410.23 671.217 1395.47 706.734 1358.93 681.262Z" fill="#0B0716"/>
<path opacity="0.19" d="M14.7991 113.163L15.159 113.521C15.699 110.651 17.1389 107.422 19.2987 104.193C19.2987 104.193 84.0935 -15.2742 216.923 18.9875C67.8948 -53.303 14.7991 113.163 14.7991 113.163Z" fill="url(#paint40_linear_3_1245)"/>
<path opacity="0.19" d="M514.259 40.5134C563.035 59.3484 589.133 96.3008 589.133 96.3008C531.538 -21.5524 446.224 43.5628 446.224 43.5628C491.221 36.3876 514.259 40.5134 514.259 40.5134Z" fill="url(#paint41_linear_3_1245)"/>
<path opacity="0.19" d="M633.229 87.6904C631.969 3.91954 558.715 30.4679 558.715 30.4679C558.715 30.4679 591.833 31.0061 607.851 45.1772C624.05 59.3483 633.229 87.6904 633.229 87.6904Z" fill="url(#paint42_linear_3_1245)"/>
<path opacity="0.19" d="M1088.23 185.812C1088.23 185.812 1208.64 130.383 1309.26 161.595C1170.85 103.835 1088.23 185.812 1088.23 185.812Z" fill="url(#paint43_linear_3_1245)"/>
<path opacity="0.19" d="M942.984 170.744C876.75 140.07 974.482 39.437 974.482 39.437C974.482 39.437 859.111 128.051 913.827 175.228C927.146 182.942 942.984 170.744 942.984 170.744Z" fill="url(#paint44_linear_3_1245)"/>
<path opacity="0.19" d="M981.501 227.428C962.603 239.267 954.323 219.715 954.323 219.715C954.323 219.715 935.605 235.321 928.945 227.428C922.286 219.535 930.565 194.96 930.565 194.96C930.565 194.96 907.167 220.074 910.767 243.572C914.367 266.892 950.724 226.711 950.724 226.711C950.724 226.711 938.305 245.008 958.103 246.801C977.901 248.595 1056.92 195.498 1148.35 192.27C1066.63 175.946 1000.4 215.589 981.501 227.428Z" fill="url(#paint45_linear_3_1245)"/>
<path opacity="0.19" d="M1356.59 255.412C1356.59 255.412 1348.31 237.115 1353.89 214.692C1353.89 214.692 1329.77 248.057 1369.19 313.531C1408.61 379.005 1444.06 374.521 1444.06 374.521V352.098C1359.47 306.715 1356.59 255.412 1356.59 255.412Z" fill="url(#paint46_linear_3_1245)"/>
<path opacity="0.19" d="M915.087 42.6658C904.108 66.5235 974.482 39.4369 974.482 39.4369C974.482 39.4369 963.503 43.3833 948.384 32.7998C933.445 22.2164 953.604 -1.46191 953.604 -1.46191C953.604 -1.46191 926.066 18.9875 915.087 42.6658Z" fill="url(#paint47_linear_3_1245)"/>
<path opacity="0.19" d="M1230.06 120.338C1179.49 107.96 1155.01 129.486 1155.01 129.486C1155.01 129.486 1189.2 117.468 1230.06 120.338Z" fill="url(#paint48_linear_3_1245)"/>
<path opacity="0.19" d="M892.768 208.235C892.768 208.235 912.027 197.651 930.385 194.96C910.227 177.56 892.768 208.235 892.768 208.235Z" fill="url(#paint49_linear_3_1245)"/>
<path opacity="0.19" d="M1297.2 124.822C1296.66 124.822 1295.94 124.643 1295.4 124.643C1295.4 124.643 1393.31 171.103 1425.53 245.725C1460.44 172.538 1297.2 124.822 1297.2 124.822Z" fill="url(#paint50_linear_3_1245)"/>
<path opacity="0.19" d="M1173.19 107.961C1173.19 107.961 1258.68 97.3771 1330.31 124.643C1295.94 69.9318 1173.19 107.961 1173.19 107.961Z" fill="url(#paint51_linear_3_1245)"/>
<path opacity="0.19" d="M1123.33 36.567C1040 -3.0762 1013 75.672 1013 75.672C1013 75.672 1050.98 45.7154 1071.85 39.6165C1092.73 33.5175 1123.33 36.567 1123.33 36.567Z" fill="url(#paint52_linear_3_1245)"/>
<path opacity="0.19" d="M1056.02 115.315C1056.02 115.315 1121.53 60.4246 1192.08 58.4514C1106.77 29.3917 1056.02 115.315 1056.02 115.315Z" fill="url(#paint53_linear_3_1245)"/>
<path opacity="0.19" d="M1253.82 53.07C1253.82 53.07 1383.05 24.5484 1443.88 47.8679V39.437C1383.41 -17.068 1253.82 53.07 1253.82 53.07Z" fill="url(#paint54_linear_3_1245)"/>
<path opacity="0.1" d="M166.707 622.963C176.966 628.165 206.844 629.241 224.482 617.402C224.482 617.402 217.823 621.349 202.344 611.662C190.465 604.128 177.686 604.846 172.826 605.384C172.106 605.563 171.387 605.743 170.487 605.743C158.788 607.357 156.448 617.582 166.707 622.963Z" fill="url(#paint55_linear_3_1245)"/>
<path opacity="0.1" d="M111.811 570.225C111.811 570.225 128.73 574.889 147.268 563.947C176.426 540.089 174.446 517.846 174.446 517.846C174.446 517.846 149.248 561.077 111.811 570.225Z" fill="url(#paint56_linear_3_1245)"/>
<path opacity="0.1" d="M59.4355 525.201C75.9942 566.817 101.192 525.739 87.6933 505.469C58.3556 464.211 4 455.063 4 455.063C4 455.063 42.8769 483.405 59.4355 525.201Z" fill="url(#paint57_linear_3_1245)"/>
<path opacity="0.1" d="M207.384 659.557C197.664 646.821 191.365 641.26 191.365 641.26C182.186 633.547 163.647 638.749 169.047 653.279C174.266 667.808 207.024 682.338 224.482 667.808C224.482 667.808 217.103 672.293 207.384 659.557Z" fill="url(#paint58_linear_3_1245)"/>
<path opacity="0.1" d="M170.667 584.396C172.646 593.545 165.447 593.365 164.187 593.186C184.885 594.8 195.505 605.743 195.505 605.743C184.705 568.252 147.448 563.947 147.448 563.947C147.448 563.947 168.507 574.351 170.667 584.396Z" fill="url(#paint59_linear_3_1245)"/>
<path opacity="0.1" d="M107.492 502.778C104.252 534.528 122.79 549.058 131.97 534.708C145.469 478.741 87.6932 446.452 87.6932 446.452C87.6932 446.452 110.731 470.848 107.492 502.778Z" fill="url(#paint60_linear_3_1245)"/>
<path opacity="0.1" d="M389.349 610.048C383.769 608.433 374.41 613.635 382.509 620.811C390.609 627.986 406.088 615.788 408.787 611.842C396.548 617.044 389.349 610.048 389.349 610.048Z" fill="url(#paint61_linear_3_1245)"/>
<path opacity="0.1" d="M386.829 650.409C382.689 643.592 377.65 639.825 375.31 638.39C374.77 638.211 374.23 637.852 373.87 637.673C368.831 634.085 356.952 637.852 361.631 645.924C366.491 653.996 386.829 670.499 399.608 658.122C399.788 657.943 392.589 659.736 386.829 650.409Z" fill="url(#paint62_linear_3_1245)"/>
<path opacity="0.1" d="M356.772 577.401C356.772 577.401 346.872 582.244 348.672 591.572C350.472 600.899 387.549 575.786 401.948 581.168H402.128C373.33 564.126 356.772 577.401 356.772 577.401Z" fill="url(#paint63_linear_3_1245)"/>
<path opacity="0.1" d="M345.073 552.646C341.833 542.601 345.073 534.708 345.073 534.708C345.073 534.708 329.414 548.161 329.234 562.871C329.054 577.759 343.633 587.087 347.412 575.786C347.412 575.965 348.312 562.691 345.073 552.646Z" fill="url(#paint64_linear_3_1245)"/>
<path opacity="0.1" d="M383.769 594.083C375.49 593.007 364.511 597.312 370.63 603.949C376.75 610.586 392.769 602.873 402.128 593.007C392.229 596.774 383.769 594.083 383.769 594.083Z" fill="url(#paint65_linear_3_1245)"/>
<path opacity="0.1" d="M423.366 663.145C421.386 660.813 417.067 659.557 413.107 658.301C408.428 656.687 408.068 652.202 408.068 652.202C408.068 652.202 405.008 662.965 412.387 669.423C419.767 675.881 428.766 671.396 424.086 664.58C424.086 664.58 424.086 664.4 423.906 664.4C423.726 663.862 423.546 663.503 423.366 663.145Z" fill="url(#paint66_linear_3_1245)"/>
<path opacity="0.1" d="M421.386 636.237C421.386 636.237 436.145 646.103 436.505 665.297C436.505 665.297 443.885 656.149 434.525 638.928C429.846 633.726 421.386 636.237 421.386 636.237Z" fill="url(#paint67_linear_3_1245)"/>
<path opacity="0.1" d="M303.856 570.584C295.756 566.099 295.037 558.207 295.037 557.13C295.037 557.31 295.037 558.027 294.857 559.283C294.857 563.229 295.397 571.481 300.436 578.118C307.276 587.087 320.235 593.903 320.235 593.903C320.235 593.903 317.175 577.939 303.856 570.584Z" fill="url(#paint68_linear_3_1245)"/>
<path opacity="0.1" d="M497.7 642.695C497.7 642.695 494.28 662.606 468.183 672.293C442.085 681.979 457.923 694.716 466.383 691.487C467.283 691.128 468.363 690.769 469.623 690.59C500.4 680.006 497.7 642.695 497.7 642.695Z" fill="url(#paint69_linear_3_1245)"/>
<path opacity="0.1" d="M457.923 604.128C457.923 604.308 458.103 604.308 458.103 604.666C459.903 607.357 463.683 615.788 457.383 630.677C449.644 649.153 462.063 666.553 469.802 653.279C475.022 623.681 460.803 607.178 457.923 604.128Z" fill="url(#paint70_linear_3_1245)"/>
<path opacity="0.1" d="M1031.18 675.342C995.72 674.446 979.701 628.703 979.701 628.703C983.661 676.777 1015.16 682.697 1015.16 682.697C1004.9 695.254 1007.06 707.631 1007.06 707.631C1011.2 688.617 1031.18 675.342 1031.18 675.342Z" fill="url(#paint71_linear_3_1245)"/>
<path opacity="0.1" d="M1038.02 635.699C1034.96 616.685 1008.14 609.51 1008.14 609.51C1017.32 618.299 1019.48 633.726 1019.48 633.726C1022.72 645.924 1041.08 654.714 1038.02 635.699Z" fill="url(#paint72_linear_3_1245)"/>
<path opacity="0.1" d="M1059.44 617.582C1053.86 626.013 1054.22 633.905 1054.22 633.905C1054.76 645.206 1070.23 644.13 1071.85 628.524C1073.47 612.918 1059.44 599.644 1059.44 599.644C1059.44 599.644 1065.01 609.151 1059.44 617.582Z" fill="url(#paint73_linear_3_1245)"/>
<path opacity="0.1" d="M1410.23 671.217C1410.23 671.217 1395.29 706.555 1358.93 681.083C1397.45 730.951 1410.23 671.217 1410.23 671.217Z" fill="url(#paint74_linear_3_1245)"/>
<path opacity="0.1" d="M1383.41 628.703C1368.29 618.12 1376.57 597.132 1376.57 597.132C1376.57 597.132 1394.75 589.419 1375.31 583.141C1356.05 577.042 1354.25 551.031 1354.25 551.031C1354.25 551.031 1348.31 594.442 1374.41 597.671C1374.41 597.671 1361.09 618.299 1378.37 641.26C1395.65 664.221 1372.61 679.289 1372.61 679.289C1407.71 681.98 1398.53 639.108 1383.41 628.703Z" fill="url(#paint75_linear_3_1245)"/>
<path opacity="0.1" d="M1396.01 530.582C1392.41 489.683 1415.27 470.669 1415.27 470.669C1415.27 470.669 1367.93 488.966 1378.19 539.372C1382.33 547.264 1399.79 571.481 1396.01 530.582Z" fill="url(#paint76_linear_3_1245)"/>
<path opacity="0.1" d="M1378.37 556.054C1361.99 547.982 1358.03 514.258 1358.03 514.258C1358.03 514.258 1350.47 560.539 1378.37 568.79C1386.65 569.328 1394.75 564.126 1378.37 556.054Z" fill="url(#paint77_linear_3_1245)"/>
<path d="M232.582 458.83C232.582 458.83 202.164 619.914 256.52 716.421H277.578C277.578 716.421 219.623 633.009 270.199 428.873C270.199 428.873 230.602 539.551 241.941 625.295C241.941 625.475 227.002 581.347 232.582 458.83Z" fill="#0B0716"/>
<path d="M408.967 92.8924C408.967 92.8924 393.309 292.005 446.224 321.962C498.96 351.739 478.802 67.9585 478.802 67.9585H475.742C475.742 67.9585 486.721 311.199 453.064 318.733C419.407 326.088 419.947 125.002 424.806 87.8698C429.846 50.7379 408.967 92.8924 408.967 92.8924Z" fill="#120B20"/>
<path d="M444.785 87.6904C444.785 87.6904 441.005 221.15 489.961 225.096C538.917 229.043 528.478 23.6514 528.478 23.6514H524.158C524.158 23.6514 530.818 205.185 492.301 216.845C453.784 228.504 457.744 67.9585 457.744 67.9585L444.785 87.6904Z" fill="#120B20"/>
<path d="M79.9539 152.626C79.9539 152.626 87.3333 331.469 4 374.879V385.822C4 385.822 92.1929 344.923 85.3535 160.519L79.9539 152.626Z" fill="#120B20"/>
<path d="M777.218 52.5318C777.218 52.5318 757.059 345.102 885.749 342.053C1024.34 338.824 964.943 65.806 964.943 65.806L1013.18 213.795C1013.18 213.795 1004.54 377.391 1059.79 377.391C1115.05 377.391 1099.93 74.0575 1099.93 74.0575L1095.25 72.6225C1095.25 72.6225 1110.55 350.484 1060.87 368.78C1011.2 387.077 1023.8 180.251 1023.8 180.251L963.503 59.1689L957.923 61.6802C957.923 61.6802 1016.24 326.088 893.488 335.057C770.918 344.026 780.817 39.437 780.817 39.437L767.859 48.2267L777.218 52.5318Z" fill="#120B20"/>
<path d="M1078.69 186.529C1078.69 186.529 1075.63 323.038 1113.61 330.393C1151.59 337.748 1171.21 96.4801 1171.21 96.4801H1165.63C1165.63 96.4801 1159.15 286.265 1117.75 318.733C1076.35 351.201 1084.81 13.4268 1084.81 13.4268H1078.51L1078.69 186.529Z" fill="#120B20"/>
<path d="M1307.63 106.167C1307.63 106.167 1286.94 439.815 1444.06 440.891V435.331C1444.06 435.331 1304.94 460.982 1318.79 103.117L1307.63 106.167Z" fill="#120B20"/>
</g>
<rect x="4.5" y="0.5" width="1439" height="689" stroke="black"/>
</g>
<defs>
<filter id="filter0_d_3_1245" x="0" y="0" width="1448" height="698" filterUnits="userSpaceOnUse" color-interpolation-filters="sRGB">
<feFlood flood-opacity="0" result="BackgroundImageFix"/>
<feColorMatrix in="SourceAlpha" type="matrix" values="0 0 0 0 0 0 0 0 0 0 0 0 0 0 0 0 0 0 127 0" result="hardAlpha"/>
<feOffset dy="4"/>
<feGaussianBlur stdDeviation="2"/>
<feComposite in2="hardAlpha" operator="out"/>
<feColorMatrix type="matrix" values="0 0 0 0 0 0 0 0 0 0 0 0 0 0 0 0 0 0 0.25 0"/>
<feBlend mode="normal" in2="BackgroundImageFix" result="effect1_dropShadow_3_1245"/>
<feBlend mode="normal" in="SourceGraphic" in2="effect1_dropShadow_3_1245" result="shape"/>
</filter>
<linearGradient id="paint0_linear_3_1245" x1="53.2922" y1="531.966" x2="53.2922" y2="38.1259" gradientUnits="userSpaceOnUse">
<stop stop-color="#2B132A"/>
<stop offset="1" stop-color="white"/>
</linearGradient>
<linearGradient id="paint1_linear_3_1245" x1="49.4168" y1="531.966" x2="49.4168" y2="38.1259" gradientUnits="userSpaceOnUse">
<stop stop-color="#2B132A"/>
<stop offset="1" stop-color="white"/>
</linearGradient>
<linearGradient id="paint2_linear_3_1245" x1="399.586" y1="471.919" x2="399.586" y2="62.4467" gradientUnits="userSpaceOnUse">
<stop stop-color="#2B132A"/>
<stop offset="1" stop-color="white"/>
</linearGradient>
<linearGradient id="paint3_linear_3_1245" x1="1007.37" y1="492.817" x2="1007.37" y2="64.0976" gradientUnits="userSpaceOnUse">
<stop stop-color="#2B132A"/>
<stop offset="1" stop-color="white"/>
</linearGradient>
<linearGradient id="paint4_linear_3_1245" x1="723.997" y1="689.991" x2="723.997" y2="497.492" gradientUnits="userSpaceOnUse">
<stop stop-color="#8B0AF8"/>
<stop offset="0.0711418" stop-color="#8521F9"/>
<stop offset="0.2353" stop-color="#6923CD"/>
<stop offset="0.399" stop-color="#6923CD"/>
<stop offset="0.5592" stop-color="#6923CD"/>
<stop offset="0.7149" stop-color="#7A28ED"/>
<stop offset="0.8642" stop-color="#3F157A"/>
<stop offset="1" stop-color="#7A28ED"/>
</linearGradient>
<linearGradient id="paint5_linear_3_1245" x1="723.997" y1="689.991" x2="723.997" y2="504.357" gradientUnits="userSpaceOnUse">
<stop stop-color="#5E0092"/>
<stop offset="0.185" stop-color="#600096"/>
<stop offset="0.3884" stop-color="#6602A4"/>
<stop offset="0.6005" stop-color="#6F04BA"/>
<stop offset="0.817" stop-color="#7D07D8"/>
<stop offset="1" stop-color="#8B0AF8"/>
</linearGradient>
<linearGradient id="paint6_linear_3_1245" x1="1076.51" y1="485.394" x2="1075.18" y2="516.182" gradientUnits="userSpaceOnUse">
<stop stop-color="#7A28ED"/>
<stop offset="0.0711238" stop-color="#7A28ED"/>
<stop offset="0.1847" stop-color="#7A28ED"/>
<stop offset="0.3267" stop-color="#6923CD"/>
<stop offset="0.4913" stop-color="#3F157A"/>
<stop offset="0.6726" stop-color="#211531"/>
<stop offset="0.8358"/>
</linearGradient>
<linearGradient id="paint7_linear_3_1245" x1="773.585" y1="519.464" x2="775.79" y2="544.05" gradientUnits="userSpaceOnUse">
<stop stop-color="#7A28ED"/>
<stop offset="0.2233" stop-color="#6923CD"/>
<stop offset="0.4446" stop-color="#3F157A"/>
<stop offset="0.6263" stop-color="#211531"/>
<stop offset="0.7617" stop-color="#22182F"/>
<stop offset="0.8358" stop-color="#22182F"/>
</linearGradient>
<linearGradient id="paint8_linear_3_1245" x1="746.111" y1="689.991" x2="746.111" y2="504.357" gradientUnits="userSpaceOnUse">
<stop stop-color="#5E0092"/>
<stop offset="0.0001" stop-color="#7A28ED"/>
<stop offset="0.0851202" stop-color="#7A28ED" stop-opacity="0"/>
<stop offset="0.2208" stop-color="#7220A0" stop-opacity="0"/>
<stop offset="0.39" stop-color="#8A45B0" stop-opacity="0"/>
<stop offset="0.5863" stop-color="#AB7AC6" stop-opacity="0"/>
<stop offset="0.8023" stop-color="#D5BCE2" stop-opacity="0"/>
<stop offset="1" stop-color="white" stop-opacity="0"/>
</linearGradient>
<linearGradient id="paint9_linear_3_1245" x1="732.015" y1="510.943" x2="731.489" y2="681.397" gradientUnits="userSpaceOnUse">
<stop/>
<stop offset="0.0426394" stop-color="#020404"/>
<stop offset="0.0889513" stop-color="#081111"/>
<stop offset="0.137" stop-color="#211531"/>
<stop offset="0.1862" stop-color="#2F1E4A"/>
<stop offset="0.2364" stop-color="#3F157A"/>
<stop offset="0.2874" stop-color="#3F157A"/>
<stop offset="0.338" stop-color="#7A28ED"/>
<stop offset="0.3727" stop-color="#3F157A"/>
<stop offset="0.436" stop-color="#3F157A"/>
<stop offset="0.5735" stop-color="#3F157A"/>
<stop offset="0.773" stop-color="#102626"/>
<stop offset="0.8358"/>
</linearGradient>
<linearGradient id="paint10_linear_3_1245" x1="402.071" y1="525.724" x2="401.535" y2="538.176" gradientUnits="userSpaceOnUse">
<stop offset="0.00654027" stop-color="#7A28ED"/>
<stop offset="0.0110074" stop-color="#7A28ED"/>
<stop offset="0.0770912" stop-color="#3F157A"/>
<stop offset="0.1475" stop-color="#6923CD"/>
<stop offset="0.2208" stop-color="#3F157A"/>
<stop offset="0.2975" stop-color="#2F1E4A"/>
<stop offset="0.3786" stop-color="#2F1E4A"/>
<stop offset="0.4656" stop-color="#2F1E4A"/>
<stop offset="0.5614" stop-color="#2F1E4A"/>
<stop offset="0.6725" stop-color="#22182F"/>
<stop offset="0.8358"/>
</linearGradient>
<linearGradient id="paint11_linear_3_1245" x1="1143.53" y1="716.592" x2="1143.53" y2="-2" gradientUnits="userSpaceOnUse">
<stop stop-color="#2F1E4A"/>
<stop offset="0.1133" stop-color="#2B1B42"/>
<stop offset="0.4407" stop-color="#211531"/>
<stop offset="0.6829" stop-color="#1E132B"/>
</linearGradient>
<linearGradient id="paint12_linear_3_1245" x1="1364" y1="586.064" x2="1364" y2="8.99224" gradientUnits="userSpaceOnUse">
<stop stop-color="#2F1E4A"/>
<stop offset="0.1133" stop-color="#2B1B42"/>
<stop offset="0.4407" stop-color="#211531"/>
<stop offset="0.6829" stop-color="#1E132B"/>
</linearGradient>
<linearGradient id="paint13_linear_3_1245" x1="1250.77" y1="716.593" x2="1250.77" y2="-2.00082" gradientUnits="userSpaceOnUse">
<stop stop-color="#1E132B"/>
<stop offset="1" stop-color="white" stop-opacity="0"/>
</linearGradient>
<linearGradient id="paint14_linear_3_1245" x1="1271.97" y1="716.591" x2="1271.97" y2="-2.00077" gradientUnits="userSpaceOnUse">
<stop stop-color="#1E132B"/>
<stop offset="1" stop-color="white"/>
</linearGradient>
<linearGradient id="paint15_linear_3_1245" x1="1347.6" y1="586.064" x2="1347.6" y2="8.99254" gradientUnits="userSpaceOnUse">
<stop stop-color="#1E132B"/>
<stop offset="1" stop-color="white" stop-opacity="0"/>
</linearGradient>
<linearGradient id="paint16_linear_3_1245" x1="1358.32" y1="586.064" x2="1358.32" y2="8.99098" gradientUnits="userSpaceOnUse">
<stop stop-color="#1E132B"/>
<stop offset="1" stop-color="white" stop-opacity="0"/>
</linearGradient>
<linearGradient id="paint17_linear_3_1245" x1="398.388" y1="716.134" x2="398.388" y2="-0.320588" gradientUnits="userSpaceOnUse">
<stop stop-color="#2F1E4A"/>
<stop offset="0.1133" stop-color="#2B1B42"/>
<stop offset="0.4407" stop-color="#211531"/>
<stop offset="0.6829" stop-color="#1E132B"/>
</linearGradient>
<linearGradient id="paint18_linear_3_1245" x1="184.858" y1="151.368" x2="184.858" y2="6.70177" gradientUnits="userSpaceOnUse">
<stop stop-color="#1E132B"/>
<stop offset="0.1172" stop-color="#22182F"/>
<stop offset="0.2465" stop-color="#2F253B"/>
<stop offset="0.3817" stop-color="#443B4F"/>
<stop offset="0.5209" stop-color="#615A6B"/>
<stop offset="0.6634" stop-color="#87828E"/>
<stop offset="0.8084" stop-color="#B6B2BA"/>
<stop offset="0.9528" stop-color="#ECEBED"/>
<stop offset="1" stop-color="white"/>
</linearGradient>
<linearGradient id="paint19_linear_3_1245" x1="287.918" y1="108.282" x2="287.918" y2="-0.320746" gradientUnits="userSpaceOnUse">
<stop stop-color="#1E132B"/>
<stop offset="0.1172" stop-color="#22182F"/>
<stop offset="0.2465" stop-color="#2F253B"/>
<stop offset="0.3817" stop-color="#443B4F"/>
<stop offset="0.5209" stop-color="#615A6B"/>
<stop offset="0.6634" stop-color="#87828E"/>
<stop offset="0.8084" stop-color="#B6B2BA"/>
<stop offset="0.9528" stop-color="#ECEBED"/>
<stop offset="1" stop-color="white"/>
</linearGradient>
<linearGradient id="paint20_linear_3_1245" x1="73.4717" y1="245.204" x2="73.4717" y2="12.8656" gradientUnits="userSpaceOnUse">
<stop stop-color="#1E132B"/>
<stop offset="0.1172" stop-color="#22182F"/>
<stop offset="0.2465" stop-color="#2F253B"/>
<stop offset="0.3817" stop-color="#443B4F"/>
<stop offset="0.5209" stop-color="#615A6B"/>
<stop offset="0.6634" stop-color="#87828E"/>
<stop offset="0.8084" stop-color="#B6B2BA"/>
<stop offset="0.9528" stop-color="#ECEBED"/>
<stop offset="1" stop-color="white"/>
</linearGradient>
<linearGradient id="paint21_linear_3_1245" x1="343.397" y1="716.02" x2="343.397" y2="23.6356" gradientUnits="userSpaceOnUse">
<stop stop-color="#1E132B"/>
<stop offset="1" stop-color="white" stop-opacity="0"/>
</linearGradient>
<linearGradient id="paint22_linear_3_1245" x1="748.078" y1="425.761" x2="748.078" y2="425.621" gradientUnits="userSpaceOnUse">
<stop stop-color="#3A2960"/>
<stop offset="1" stop-color="#2F1E4A"/>
</linearGradient>
<linearGradient id="paint23_linear_3_1245" x1="1242.06" y1="544.183" x2="1280" y2="544.183" gradientUnits="userSpaceOnUse">
<stop stop-color="#7A28ED"/>
<stop offset="0.1606" stop-color="#6923CD"/>
<stop offset="0.5148" stop-color="#3F157A"/>
<stop offset="1"/>
</linearGradient>
<linearGradient id="paint24_linear_3_1245" x1="1184.99" y1="535.396" x2="1217.03" y2="535.396" gradientUnits="userSpaceOnUse">
<stop stop-color="#7A28ED"/>
<stop offset="0.1606" stop-color="#6923CD"/>
<stop offset="0.5148" stop-color="#3F157A"/>
<stop offset="1"/>
</linearGradient>
<linearGradient id="paint25_linear_3_1245" x1="1110.9" y1="618.696" x2="1161.22" y2="618.696" gradientUnits="userSpaceOnUse">
<stop stop-color="#7A28ED"/>
<stop offset="0.1606" stop-color="#6923CD"/>
<stop offset="0.5148" stop-color="#3F157A"/>
<stop offset="1"/>
</linearGradient>
<linearGradient id="paint26_linear_3_1245" x1="1129.01" y1="574.051" x2="1192.93" y2="574.051" gradientUnits="userSpaceOnUse">
<stop stop-color="#7A28ED"/>
<stop offset="0.1606" stop-color="#6923CD"/>
<stop offset="0.5148" stop-color="#3F157A"/>
<stop offset="1"/>
</linearGradient>
<linearGradient id="paint27_linear_3_1245" x1="1120.72" y1="654.583" x2="1168.11" y2="654.583" gradientUnits="userSpaceOnUse">
<stop stop-color="#7A28ED"/>
<stop offset="0.1606" stop-color="#6923CD"/>
<stop offset="0.5148" stop-color="#3F157A"/>
<stop offset="1"/>
</linearGradient>
<linearGradient id="paint28_linear_3_1245" x1="1138.98" y1="716.449" x2="1177" y2="716.449" gradientUnits="userSpaceOnUse">
<stop stop-color="#7A28ED"/>
<stop offset="0.1606" stop-color="#6923CD"/>
<stop offset="0.5148" stop-color="#3F157A"/>
<stop offset="1"/>
</linearGradient>
<linearGradient id="paint29_linear_3_1245" x1="4.06648" y1="226.081" x2="166.321" y2="226.081" gradientUnits="userSpaceOnUse">
<stop/>
<stop offset="0.4852" stop-color="#3F157A"/>
<stop offset="0.8394" stop-color="#6923CD"/>
<stop offset="1" stop-color="#7A28ED"/>
</linearGradient>
<linearGradient id="paint30_linear_3_1245" x1="4.06643" y1="164.71" x2="178.729" y2="164.71" gradientUnits="userSpaceOnUse">
<stop/>
<stop offset="0.4852" stop-color="#3F157A"/>
<stop offset="0.8394" stop-color="#6923CD"/>
<stop offset="1" stop-color="#7A28ED"/>
</linearGradient>
<linearGradient id="paint31_linear_3_1245" x1="790.373" y1="105.171" x2="820.703" y2="105.171" gradientUnits="userSpaceOnUse">
<stop/>
<stop offset="0.4852" stop-color="#3F157A"/>
<stop offset="0.8394" stop-color="#6923CD"/>
<stop offset="1" stop-color="#7A28ED"/>
</linearGradient>
<linearGradient id="paint32_linear_3_1245" x1="683.761" y1="114.079" x2="807.936" y2="114.079" gradientUnits="userSpaceOnUse">
<stop/>
<stop offset="0.4852" stop-color="#3F157A"/>
<stop offset="0.8394" stop-color="#6923CD"/>
<stop offset="1" stop-color="#7A28ED"/>
</linearGradient>
<linearGradient id="paint33_linear_3_1245" x1="643.015" y1="146.085" x2="663.226" y2="146.085" gradientUnits="userSpaceOnUse">
<stop/>
<stop offset="0.4852" stop-color="#3F157A"/>
<stop offset="0.8394" stop-color="#6923CD"/>
<stop offset="1" stop-color="#7A28ED"/>
</linearGradient>
<linearGradient id="paint34_linear_3_1245" x1="335.431" y1="142.716" x2="636.275" y2="142.716" gradientUnits="userSpaceOnUse">
<stop/>
<stop offset="0.4852" stop-color="#3F157A"/>
<stop offset="0.8394" stop-color="#6923CD"/>
<stop offset="1" stop-color="#7A28ED"/>
</linearGradient>
<linearGradient id="paint35_linear_3_1245" x1="806.917" y1="42.9024" x2="925.403" y2="42.9024" gradientUnits="userSpaceOnUse">
<stop/>
<stop offset="0.4852" stop-color="#3F157A"/>
<stop offset="0.8394" stop-color="#6923CD"/>
<stop offset="1" stop-color="#7A28ED"/>
</linearGradient>
<linearGradient id="paint36_linear_3_1245" x1="108.879" y1="67.3862" x2="320.726" y2="67.3862" gradientUnits="userSpaceOnUse">
<stop/>
<stop offset="0.4852" stop-color="#3F157A"/>
<stop offset="0.8394" stop-color="#6923CD"/>
<stop offset="1" stop-color="#7A28ED"/>
</linearGradient>
<linearGradient id="paint37_linear_3_1245" x1="274.772" y1="87.1369" x2="388.314" y2="87.1369" gradientUnits="userSpaceOnUse">
<stop/>
<stop offset="0.4852" stop-color="#3F157A"/>
<stop offset="0.8394" stop-color="#6923CD"/>
<stop offset="1" stop-color="#7A28ED"/>
</linearGradient>
<linearGradient id="paint38_linear_3_1245" x1="660.784" y1="132.45" x2="755.755" y2="132.45" gradientUnits="userSpaceOnUse">
<stop/>
<stop offset="0.4852" stop-color="#3F157A"/>
<stop offset="0.8394" stop-color="#6923CD"/>
<stop offset="1" stop-color="#7A28ED"/>
</linearGradient>
<linearGradient id="paint39_linear_3_1245" x1="1396.2" y1="586.064" x2="1396.2" y2="8.99234" gradientUnits="userSpaceOnUse">
<stop stop-color="white"/>
<stop offset="1" stop-color="#1E132B"/>
</linearGradient>
<linearGradient id="paint40_linear_3_1245" x1="14.793" y1="57.1987" x2="216.871" y2="57.1987" gradientUnits="userSpaceOnUse">
<stop/>
<stop offset="0.4852" stop-color="#3F157A"/>
<stop offset="0.8394" stop-color="#6923CD"/>
<stop offset="1" stop-color="#7A28ED"/>
</linearGradient>
<linearGradient id="paint41_linear_3_1245" x1="446.18" y1="61.1431" x2="589.096" y2="61.1431" gradientUnits="userSpaceOnUse">
<stop/>
<stop offset="0.4852" stop-color="#3F157A"/>
<stop offset="0.8394" stop-color="#6923CD"/>
<stop offset="1" stop-color="#7A28ED"/>
</linearGradient>
<linearGradient id="paint42_linear_3_1245" x1="558.766" y1="57.1431" x2="633.212" y2="57.1431" gradientUnits="userSpaceOnUse">
<stop/>
<stop offset="0.4852" stop-color="#3F157A"/>
<stop offset="0.8394" stop-color="#6923CD"/>
<stop offset="1" stop-color="#7A28ED"/>
</linearGradient>
<linearGradient id="paint43_linear_3_1245" x1="1088.15" y1="163.351" x2="1309.19" y2="163.351" gradientUnits="userSpaceOnUse">
<stop stop-color="#7A28ED"/>
<stop offset="0.1606" stop-color="#6923CD"/>
<stop offset="0.5148" stop-color="#3F157A"/>
<stop offset="1"/>
</linearGradient>
<linearGradient id="paint44_linear_3_1245" x1="899.132" y1="108.627" x2="974.495" y2="108.627" gradientUnits="userSpaceOnUse">
<stop stop-color="#7A28ED"/>
<stop offset="0.1606" stop-color="#6923CD"/>
<stop offset="0.5148" stop-color="#3F157A"/>
<stop offset="1"/>
</linearGradient>
<linearGradient id="paint45_linear_3_1245" x1="910.381" y1="219.545" x2="1148.35" y2="219.545" gradientUnits="userSpaceOnUse">
<stop stop-color="#7A28ED"/>
<stop offset="0.1606" stop-color="#6923CD"/>
<stop offset="0.5148" stop-color="#3F157A"/>
<stop offset="1"/>
</linearGradient>
<linearGradient id="paint46_linear_3_1245" x1="1346.43" y1="294.585" x2="1443.95" y2="294.585" gradientUnits="userSpaceOnUse">
<stop stop-color="#7A28ED"/>
<stop offset="0.1606" stop-color="#6923CD"/>
<stop offset="0.5148" stop-color="#3F157A"/>
<stop offset="1"/>
</linearGradient>
<linearGradient id="paint47_linear_3_1245" x1="913.89" y1="25.5103" x2="974.495" y2="25.5103" gradientUnits="userSpaceOnUse">
<stop stop-color="#7A28ED"/>
<stop offset="0.1606" stop-color="#6923CD"/>
<stop offset="0.5148" stop-color="#3F157A"/>
<stop offset="1"/>
</linearGradient>
<linearGradient id="paint48_linear_3_1245" x1="1155.17" y1="122.949" x2="1230.15" y2="122.949" gradientUnits="userSpaceOnUse">
<stop stop-color="#7A28ED"/>
<stop offset="0.1606" stop-color="#6923CD"/>
<stop offset="0.5148" stop-color="#3F157A"/>
<stop offset="1"/>
</linearGradient>
<linearGradient id="paint49_linear_3_1245" x1="892.85" y1="198.907" x2="930.532" y2="198.907" gradientUnits="userSpaceOnUse">
<stop stop-color="#7A28ED"/>
<stop offset="0.1606" stop-color="#6923CD"/>
<stop offset="0.5148" stop-color="#3F157A"/>
<stop offset="1"/>
</linearGradient>
<linearGradient id="paint50_linear_3_1245" x1="1295.4" y1="185.203" x2="1430.36" y2="185.203" gradientUnits="userSpaceOnUse">
<stop stop-color="#7A28ED"/>
<stop offset="0.1606" stop-color="#6923CD"/>
<stop offset="0.5148" stop-color="#3F157A"/>
<stop offset="1"/>
</linearGradient>
<linearGradient id="paint51_linear_3_1245" x1="1173.17" y1="109.847" x2="1330.33" y2="109.847" gradientUnits="userSpaceOnUse">
<stop stop-color="#7A28ED"/>
<stop offset="0.1606" stop-color="#6923CD"/>
<stop offset="0.5148" stop-color="#3F157A"/>
<stop offset="1"/>
</linearGradient>
<linearGradient id="paint52_linear_3_1245" x1="1013.1" y1="50.5763" x2="1123.38" y2="50.5763" gradientUnits="userSpaceOnUse">
<stop stop-color="#7A28ED"/>
<stop offset="0.1606" stop-color="#6923CD"/>
<stop offset="0.5148" stop-color="#3F157A"/>
<stop offset="1"/>
</linearGradient>
<linearGradient id="paint53_linear_3_1245" x1="1055.99" y1="83.9683" x2="1192.01" y2="83.9683" gradientUnits="userSpaceOnUse">
<stop stop-color="#7A28ED"/>
<stop offset="0.1606" stop-color="#6923CD"/>
<stop offset="0.5148" stop-color="#3F157A"/>
<stop offset="1"/>
</linearGradient>
<linearGradient id="paint54_linear_3_1245" x1="1253.89" y1="35.2937" x2="1443.95" y2="35.2937" gradientUnits="userSpaceOnUse">
<stop stop-color="#7A28ED"/>
<stop offset="0.1606" stop-color="#6923CD"/>
<stop offset="0.5148" stop-color="#3F157A"/>
<stop offset="1"/>
</linearGradient>
<linearGradient id="paint55_linear_3_1245" x1="160.209" y1="615.818" x2="224.53" y2="615.818" gradientUnits="userSpaceOnUse">
<stop/>
<stop offset="0.4852" stop-color="#3F157A"/>
<stop offset="0.8394" stop-color="#6923CD"/>
<stop offset="1" stop-color="#7A28ED"/>
</linearGradient>
<linearGradient id="paint56_linear_3_1245" x1="111.866" y1="544.546" x2="174.616" y2="544.546" gradientUnits="userSpaceOnUse">
<stop/>
<stop offset="0.4852" stop-color="#3F157A"/>
<stop offset="0.8394" stop-color="#6923CD"/>
<stop offset="1" stop-color="#7A28ED"/>
</linearGradient>
<linearGradient id="paint57_linear_3_1245" x1="4.06648" y1="499.094" x2="91.5953" y2="499.094" gradientUnits="userSpaceOnUse">
<stop/>
<stop offset="0.4852" stop-color="#3F157A"/>
<stop offset="0.8394" stop-color="#6923CD"/>
<stop offset="1" stop-color="#7A28ED"/>
</linearGradient>
<linearGradient id="paint58_linear_3_1245" x1="168.142" y1="655.71" x2="224.53" y2="655.71" gradientUnits="userSpaceOnUse">
<stop/>
<stop offset="0.4852" stop-color="#3F157A"/>
<stop offset="0.8394" stop-color="#6923CD"/>
<stop offset="1" stop-color="#7A28ED"/>
</linearGradient>
<linearGradient id="paint59_linear_3_1245" x1="147.327" y1="584.843" x2="195.426" y2="584.843" gradientUnits="userSpaceOnUse">
<stop/>
<stop offset="0.4852" stop-color="#3F157A"/>
<stop offset="0.8394" stop-color="#6923CD"/>
<stop offset="1" stop-color="#7A28ED"/>
</linearGradient>
<linearGradient id="paint60_linear_3_1245" x1="87.7406" y1="493.28" x2="134.049" y2="493.28" gradientUnits="userSpaceOnUse">
<stop/>
<stop offset="0.4852" stop-color="#3F157A"/>
<stop offset="0.8394" stop-color="#6923CD"/>
<stop offset="1" stop-color="#7A28ED"/>
</linearGradient>
<linearGradient id="paint61_linear_3_1245" x1="379.416" y1="616.438" x2="408.727" y2="616.438" gradientUnits="userSpaceOnUse">
<stop/>
<stop offset="0.4852" stop-color="#3F157A"/>
<stop offset="0.8394" stop-color="#6923CD"/>
<stop offset="1" stop-color="#7A28ED"/>
</linearGradient>
<linearGradient id="paint62_linear_3_1245" x1="360.73" y1="649.338" x2="399.767" y2="649.338" gradientUnits="userSpaceOnUse">
<stop/>
<stop offset="0.4852" stop-color="#3F157A"/>
<stop offset="0.8394" stop-color="#6923CD"/>
<stop offset="1" stop-color="#7A28ED"/>
</linearGradient>
<linearGradient id="paint63_linear_3_1245" x1="348.53" y1="583.086" x2="402.064" y2="583.086" gradientUnits="userSpaceOnUse">
<stop/>
<stop offset="0.4852" stop-color="#3F157A"/>
<stop offset="0.8394" stop-color="#6923CD"/>
<stop offset="1" stop-color="#7A28ED"/>
</linearGradient>
<linearGradient id="paint64_linear_3_1245" x1="329.225" y1="557.852" x2="347.501" y2="557.852" gradientUnits="userSpaceOnUse">
<stop/>
<stop offset="0.4852" stop-color="#3F157A"/>
<stop offset="0.8394" stop-color="#6923CD"/>
<stop offset="1" stop-color="#7A28ED"/>
</linearGradient>
<linearGradient id="paint65_linear_3_1245" x1="368.771" y1="599.666" x2="402.064" y2="599.666" gradientUnits="userSpaceOnUse">
<stop/>
<stop offset="0.4852" stop-color="#3F157A"/>
<stop offset="0.8394" stop-color="#6923CD"/>
<stop offset="1" stop-color="#7A28ED"/>
</linearGradient>
<linearGradient id="paint66_linear_3_1245" x1="407.438" y1="662.169" x2="425.377" y2="662.169" gradientUnits="userSpaceOnUse">
<stop/>
<stop offset="0.4852" stop-color="#3F157A"/>
<stop offset="0.8394" stop-color="#6923CD"/>
<stop offset="1" stop-color="#7A28ED"/>
</linearGradient>
<linearGradient id="paint67_linear_3_1245" x1="421.365" y1="650.455" x2="439.261" y2="650.455" gradientUnits="userSpaceOnUse">
<stop/>
<stop offset="0.4852" stop-color="#3F157A"/>
<stop offset="0.8394" stop-color="#6923CD"/>
<stop offset="1" stop-color="#7A28ED"/>
</linearGradient>
<linearGradient id="paint68_linear_3_1245" x1="294.88" y1="575.47" x2="320.266" y2="575.47" gradientUnits="userSpaceOnUse">
<stop/>
<stop offset="0.4852" stop-color="#3F157A"/>
<stop offset="0.8394" stop-color="#6923CD"/>
<stop offset="1" stop-color="#7A28ED"/>
</linearGradient>
<linearGradient id="paint69_linear_3_1245" x1="453.79" y1="667.266" x2="497.714" y2="667.266" gradientUnits="userSpaceOnUse">
<stop/>
<stop offset="0.4852" stop-color="#3F157A"/>
<stop offset="0.8394" stop-color="#6923CD"/>
<stop offset="1" stop-color="#7A28ED"/>
</linearGradient>
<linearGradient id="paint70_linear_3_1245" x1="454.953" y1="631.123" x2="470.97" y2="631.123" gradientUnits="userSpaceOnUse">
<stop/>
<stop offset="0.4852" stop-color="#3F157A"/>
<stop offset="0.8394" stop-color="#6923CD"/>
<stop offset="1" stop-color="#7A28ED"/>
</linearGradient>
<linearGradient id="paint71_linear_3_1245" x1="979.703" y1="668.16" x2="1031.17" y2="668.16" gradientUnits="userSpaceOnUse">
<stop stop-color="#7A28ED"/>
<stop offset="0.1606" stop-color="#6923CD"/>
<stop offset="0.5148" stop-color="#3F157A"/>
<stop offset="1"/>
</linearGradient>
<linearGradient id="paint72_linear_3_1245" x1="1008.19" y1="628.218" x2="1038.35" y2="628.218" gradientUnits="userSpaceOnUse">
<stop stop-color="#7A28ED"/>
<stop offset="0.1606" stop-color="#6923CD"/>
<stop offset="0.5148" stop-color="#3F157A"/>
<stop offset="1"/>
</linearGradient>
<linearGradient id="paint73_linear_3_1245" x1="1054.15" y1="620.66" x2="1071.97" y2="620.66" gradientUnits="userSpaceOnUse">
<stop stop-color="#7A28ED"/>
<stop offset="0.1606" stop-color="#6923CD"/>
<stop offset="0.5148" stop-color="#3F157A"/>
<stop offset="1"/>
</linearGradient>
<linearGradient id="paint74_linear_3_1245" x1="1358.97" y1="686.118" x2="1410.29" y2="686.118" gradientUnits="userSpaceOnUse">
<stop stop-color="#7A28ED"/>
<stop offset="0.1606" stop-color="#6923CD"/>
<stop offset="0.5148" stop-color="#3F157A"/>
<stop offset="1"/>
</linearGradient>
<linearGradient id="paint75_linear_3_1245" x1="1353.64" y1="615.072" x2="1396.88" y2="615.072" gradientUnits="userSpaceOnUse">
<stop stop-color="#7A28ED"/>
<stop offset="0.1606" stop-color="#6923CD"/>
<stop offset="0.5148" stop-color="#3F157A"/>
<stop offset="1"/>
</linearGradient>
<linearGradient id="paint76_linear_3_1245" x1="1376.87" y1="512.166" x2="1415.34" y2="512.166" gradientUnits="userSpaceOnUse">
<stop stop-color="#7A28ED"/>
<stop offset="0.1606" stop-color="#6923CD"/>
<stop offset="0.5148" stop-color="#3F157A"/>
<stop offset="1"/>
</linearGradient>
<linearGradient id="paint77_linear_3_1245" x1="1357.14" y1="541.435" x2="1387.8" y2="541.435" gradientUnits="userSpaceOnUse">
<stop stop-color="#7A28ED"/>
<stop offset="0.1606" stop-color="#6923CD"/>
<stop offset="0.5148" stop-color="#3F157A"/>
<stop offset="1"/>
</linearGradient>
<clipPath id="clip0_3_1245">
<rect x="4" width="1440" height="690" fill="white"/>
</clipPath>
</defs>
</svg>
